<?xml version="1.0" encoding="UTF-8"?>
<svg width="33px" height="32px" viewBox="0 0 33 32" version="1.1" xmlns="http://www.w3.org/2000/svg" xmlns:xlink="http://www.w3.org/1999/xlink">
    <title>编组 3备份</title>
    <g id="V3.0-企业文化" stroke="none" stroke-width="1" fill="none" fill-rule="evenodd">
        <g id="2.榜单" transform="translate(-666.000000, -403.000000)" fill-rule="nonzero">
            <g id="编组-3备份" transform="translate(666.294487, 403.000000)">
                <rect id="矩形" x="0" y="0" width="32" height="32"></rect>
                <g id="编组备份" transform="translate(2.500000, 2.500000)" fill="#999999">
                    <path d="M10.9,0.5 L10.9,3.1 L3.75,3.1 C3.41665927,3.1 3.14192071,3.35092851 3.10437306,3.67419678 L3.1,3.75 L3.1,23.25 C3.1,23.5833574 3.35091594,23.8580817 3.67419409,23.8956272 L3.75,23.9 L23.25,23.9 C23.5833709,23.9 23.8580836,23.6490995 23.8956274,23.3258092 L23.9,23.25 L23.9,15.757905 L26.5,15.757905 L26.5,23.25 C26.5,24.9977195 25.1205288,26.4231833 23.3909805,26.4969974 L23.25,26.5 L3.75,26.5 C2.00230447,26.5 0.576817964,25.1205214 0.503002674,23.3909799 L0.5,23.25 L0.5,3.75 C0.5,2.00231213 1.87950198,0.576818367 3.60902195,0.50300269 L3.75,0.5 L10.9,0.5 Z M25.2,0.5 C25.8853352,0.5 26.4468073,1.03032056 26.4964343,1.70297948 L26.5,1.8 L26.5,12.2 L23.9,12.2 L23.899,4.938 L14.6700006,14.1684776 L12.8315224,12.3300006 L22.061,3.099 L14.8,3.1 L14.8,0.5 L25.2,0.5 Z" id="形状结合"></path>
                </g>
            </g>
        </g>
    </g>
</svg>