<?xml version="1.0" encoding="UTF-8"?>
<svg width="32px" height="32px" viewBox="0 0 32 32" version="1.1" xmlns="http://www.w3.org/2000/svg" xmlns:xlink="http://www.w3.org/1999/xlink">
    <title>编组</title>
    <g id="V3.0-企业文化" stroke="none" stroke-width="1" fill="none" fill-rule="evenodd">
        <g id="2.榜单" transform="translate(-279.000000, -469.000000)" fill-rule="nonzero">
            <g id="编组-2备份" transform="translate(279.000000, 468.000000)">
                <g id="编组" transform="translate(16.000000, 17.000000) scale(1, -1) translate(-16.000000, -17.000000) translate(0.000000, 1.000000)">
                    <rect id="矩形" fill-opacity="0.01" fill="#FFFFFF" x="0.489795918" y="0.326530612" width="31.3469388" height="31.3469388"></rect>
                    <path d="M16.1632653,1.63265306 C24.0981352,1.63265306 30.5306122,8.06513012 30.5306122,16 C30.5306122,23.9348699 24.0981352,30.3673469 16.1632653,30.3673469 C8.22839543,30.3673469 1.79591837,23.9348699 1.79591837,16 C1.79591837,8.06513012 8.22839543,1.63265306 16.1632653,1.63265306 Z M16.1632653,4.24489796 C9.67109845,4.24489796 4.40816327,9.50783314 4.40816327,16 C4.40816327,22.4921669 9.67109845,27.755102 16.1632653,27.755102 C22.6554322,27.755102 27.9183673,22.4921669 27.9183673,16 C27.9183673,9.50783314 22.6554322,4.24489796 16.1632653,4.24489796 Z M17.0037543,11.0817657 L17.0868333,11.1580646 L23.8879524,17.9591837 L22.0408163,19.8063198 L16.1632653,13.9291429 L10.2857143,19.8063198 L8.4385782,17.9591837 L15.2396973,11.1580646 C15.7229239,10.674838 16.490587,10.649405 17.0037543,11.0817657 Z" id="形状结合" fill="#238CFF"></path>
                </g>
            </g>
        </g>
    </g>
</svg>