<?xml version="1.0" encoding="UTF-8"?>
<svg width="37px" height="37px" viewBox="0 0 37 37" version="1.1" xmlns="http://www.w3.org/2000/svg" xmlns:xlink="http://www.w3.org/1999/xlink">
    <title>001</title>
    <g id="v1.1" stroke="none" stroke-width="1" fill="none" fill-rule="evenodd">
        <g id="1.NS-YTD" transform="translate(-32.000000, -162.000000)" fill-rule="nonzero">
            <g id="001" transform="translate(32.500000, 162.500000)">
                <rect id="矩形" fill="#000000" opacity="0" x="0" y="0" width="36" height="36"></rect>
                <g id="筛-选" transform="translate(3.500000, 3.500000)">
                    <rect id="矩形" fill="#000000" opacity="0" x="0" y="0" width="28.5" height="28.5"></rect>
                    <path d="M26.8673775,3.1947075 C26.47764,2.3360025 25.6199325,1.78125 24.682425,1.78125 L3.969195,1.78096368 C3.04019567,1.77997627 2.20117483,2.33612241 1.840245,3.1921425 C1.45635,4.084905 1.63419,5.087535 2.301945,5.7560025 L2.375475,5.84421 L10.0235925,11.9738475 C10.1827863,12.0964096 10.2776351,12.2846915 10.281375,12.485565 L10.281375,23.001495 C10.2737542,23.8746308 10.7525855,24.679476 11.5235475,25.089405 L14.8346775,26.933925 C15.199905,27.12459 15.5762475,27.217215 15.984795,27.217215 L15.9866475,27.217215 C16.6353075,27.217215 17.239365,26.9671275 17.68767,26.51298 C18.1289925,26.0659575 18.367395,25.4697375 18.35913,24.83205 L18.35913,12.5509725 C18.3608249,12.3548391 18.4473551,12.1690459 18.5963925,12.041535 L26.35338,5.83965 L26.44515,5.7500175 C27.0909424,5.06262535 27.2577177,4.05330537 26.8673775,3.1947075 L26.8673775,3.1947075 Z M25.1958525,4.5364875 L25.1850225,4.551165 L17.52408,10.717425 C16.964625,11.16858 16.644,11.8438875 16.644,12.57021 L16.644,24.8319075 C16.6447125,25.0629 16.522875,25.281495 16.3143975,25.4087475 C16.2125043,25.4590461 16.1004217,25.4854318 15.98679,25.4854318 C15.8749321,25.4862641 15.7646628,25.4589173 15.666165,25.4058975 L12.35703,23.5952925 C12.153825,23.4949725 12.0274275,23.273385 12.0274275,23.016885 L12.0274275,12.5022375 C12.0274275,11.7837525 11.700675,11.1093 11.131245,10.6517325 L3.733215,4.7462475 L3.4737225,4.5339225 C3.330225,4.3312875 3.3138375,4.069515 3.42684,3.8598975 C3.5304375,3.6299025 3.747465,3.492675 4.007385,3.492675 L24.681,3.492675 C24.9269981,3.49405892 25.1509553,3.63475001 25.25898,3.855765 C25.3676311,4.07648768 25.3432396,4.33950879 25.1958525,4.5364875 L25.1958525,4.5364875 Z" id="形状" fill="#333333"></path>
                    <path d="M20.824095,22.424085 C20.3690925,22.4119725 20.0028675,22.0292175 20.0117025,21.570225 C20.0117025,21.0961275 20.3762175,20.7125175 20.824095,20.7125175 L26.2626075,20.7125175 C26.7106275,20.7125175 27.075,21.095985 27.075,21.567375 C27.0831441,21.7882094 27.0022836,22.0030674 26.8505625,22.1637375 C26.7006451,22.324011 26.4928145,22.4176117 26.2734375,22.4236575 L26.2626075,22.424085 L20.824095,22.424085 Z M20.824095,18.5895525 C20.369805,18.577725 20.003865,18.195255 20.0117025,17.7374025 C20.0117025,17.2625925 20.3762175,16.8784125 20.824095,16.8784125 L26.2626075,16.8784125 C26.7106275,16.8784125 27.075,17.2625925 27.075,17.73498 C27.0850831,17.9536462 27.0068833,18.1671939 26.8579725,18.3276375 C26.7107781,18.4871905 26.5059127,18.581286 26.28897,18.5889825 L26.2626075,18.589695 L20.824095,18.589695 L20.824095,18.5895525 Z M20.824095,14.7551625 C20.369805,14.743335 20.003865,14.360865 20.0117025,13.90287 C20.0117025,13.4290575 20.3762175,13.0457325 20.824095,13.0457325 L26.2626075,13.0457325 C26.7106275,13.0457325 27.075,13.4290575 27.075,13.9004475 C27.08355,14.124315 27.0064575,14.3327925 26.8579725,14.493105 C26.7094875,14.6534175 26.5074225,14.746185 26.28897,14.7545925 L26.2614675,14.7551625 L20.824095,14.7551625 Z" id="形状" fill="#333333"></path>
                </g>
            </g>
        </g>
    </g>
</svg>