<?xml version="1.0" encoding="UTF-8"?>
<svg width="64px" height="64px" viewBox="0 0 64 64" version="1.1" xmlns="http://www.w3.org/2000/svg" xmlns:xlink="http://www.w3.org/1999/xlink">
    <title>最新</title>
    <g id="V3.0-企业文化" stroke="none" stroke-width="1" fill="none" fill-rule="evenodd">
        <g id="1.首页" transform="translate(-208.000000, -468.000000)" fill-rule="nonzero">
            <g id="最新" transform="translate(208.000000, 468.000000)">
                <rect id="矩形" fill="#000000" opacity="0" x="0" y="0" width="64" height="64"></rect>
                <path d="M46.6313224,18 L17.3686776,18 C10.7028235,18 5.25411335,23.4543977 5.25411335,30.1145643 C5.25411335,35.1367053 8.35953687,39.4763356 12.7446679,41.296364 C13.2394881,42.7865123 9.99756246,46 9.99756246,46 L21.1736746,42.223441 L46.6313224,42.223441 C53.2914889,42.223441 58.7458867,36.7747309 58.7458867,30.1145643 C58.7458867,23.4487101 53.2914889,18 46.6313224,18 Z" id="形状" fill="#FF3B30"></path>
                <path d="M16.7619048,35.5 L16.7619048,28.511855 L22.1775254,35.5 L24.2179717,35.5 L24.2179717,24.5 L21.8630205,24.5 L21.8630205,31.4958159 L16.4473999,24.5 L14.3992827,24.5 L14.3992827,35.5 L16.7619048,35.5 Z M34.7336123,35.5 L34.7336123,33.3828452 L28.8423989,33.3828452 L28.8423989,30.9435146 L33.3145049,30.9435146 L33.3145049,28.8263598 L28.8423989,28.8263598 L28.8423989,26.6248257 L34.5725244,26.6248257 L34.5725244,24.5 L26.4797768,24.5 L26.4797768,35.5 L34.7336123,35.5 Z M41.07631,35.5 L43.4312612,28.1129707 L45.7862124,35.5 L47.9877466,35.5 L51.6007173,24.5 L49.0846782,24.5 L46.8064355,32.0404463 L44.5281929,24.5 L42.3343295,24.5 L40.0560869,32.0404463 L37.7778442,24.5 L35.2618051,24.5 L38.8747759,35.5 L41.07631,35.5 Z" id="NEW" fill="#FFFFFF"></path>
            </g>
        </g>
    </g>
</svg>