<?xml version="1.0" encoding="UTF-8"?>
<svg width="37px" height="37px" viewBox="0 0 37 37" version="1.1" xmlns="http://www.w3.org/2000/svg" xmlns:xlink="http://www.w3.org/1999/xlink">
    <title>电话</title>
    <defs>
        <linearGradient x1="50%" y1="0%" x2="50%" y2="100%" id="linearGradient-1">
            <stop stop-color="#4E8EFF" offset="0%"></stop>
            <stop stop-color="#3382E6" offset="100%"></stop>
        </linearGradient>
    </defs>
    <g id="one-hr-手机端" stroke="none" stroke-width="1" fill="none" fill-rule="evenodd">
        <g id="onehr-弹窗" transform="translate(-657.000000, -368.000000)" fill-rule="nonzero">
            <g id="电话" transform="translate(657.070000, 368.250000)">
                <rect id="矩形" fill="#000000" opacity="0" x="0" y="0" width="36" height="36"></rect>
                <path d="M25.0610625,24.843832 C24.6734194,24.7381044 24.2733887,24.6846393 23.8715859,24.6848555 C22.2033516,24.6848555 20.7454922,25.5867891 19.9579922,26.9314805 C19.7034609,27.3641484 19.2624609,27.6593203 18.7609922,27.6920859 C18.550582,27.7060078 18.3389063,27.7123008 18.1259297,27.7123008 C13.1993438,27.7123008 9.12195703,24.0819258 8.41004297,19.3490508 C8.31933984,18.7410234 8.60656641,18.1418555 9.13078125,17.8239727 C10.4436563,17.0293008 11.3218945,15.586207 11.3218945,13.9375195 C11.3218945,13.048207 11.0661328,12.2194687 10.6250977,11.5193672 C9.82117969,10.2440742 8.40244922,9.39638672 6.78589453,9.39638672 C4.361625,9.39638672 2.3821875,11.2998867 2.2561875,13.6953633 C2.25242578,13.776082 2.24985938,13.8568008 2.24985938,13.9375898 C2.24985938,14.1684258 2.26750781,14.3941992 2.30027344,14.6149453 C3.03616406,25.3155937 11.9380078,33.7671562 22.8131016,33.7671562 C23.0537813,33.7671562 23.2943906,33.7620937 23.5325742,33.7532695 C23.6447227,33.7620937 23.7568711,33.7671562 23.8715508,33.7671562 C24.191543,33.7671562 24.5027813,33.7343555 24.8026641,33.6713203 C26.8615195,33.2411484 28.4074805,31.4146406 28.4074805,29.2260234 C28.4074805,27.1308516 26.9888555,25.3673437 25.0610625,24.8437969 M23.4181758,21.403582 C22.7225391,21.403582 22.1581758,20.8392187 22.1581758,20.143582 C22.1581758,16.6654687 19.3321758,13.8353555 15.8581758,13.8353555 C15.1625391,13.8353555 14.5981758,13.2709922 14.5981758,12.5753555 C14.5981758,11.8797187 15.1625391,11.3153555 15.8581758,11.3153555 C20.721832,11.3153555 24.6781758,15.2758125 24.6781758,20.143582 C24.6781758,20.8392187 24.1138125,21.403582 23.4181758,21.403582 Z M27.9536836,20.6472305 C27.2580117,20.6472305 26.6936836,20.0828672 26.6936836,19.3872305 C26.6936836,13.8222422 22.1721328,9.29411719 16.6136836,9.29411719 C15.9180117,9.29411719 15.3536836,8.72978906 15.3536836,8.03411719 C15.3536836,7.33848047 15.9180117,6.77411719 16.6136836,6.77411719 C23.5617188,6.77411719 29.2136836,12.4326562 29.2136836,19.3872305 C29.2136836,20.0828672 28.6493203,20.6472305 27.9536836,20.6472305 L27.9536836,20.6472305 Z M32.49,19.8901055 C31.7943633,19.8901055 31.23,19.3257422 31.23,18.6301055 C31.23,10.9782422 25.0120195,4.75287891 17.37,4.75287891 C16.6743633,4.75287891 16.11,4.18855078 16.11,3.49287891 C16.11,2.79724219 16.6743633,2.23287891 17.37,2.23287891 C26.4016406,2.23287891 33.75,9.58865625 33.75,18.6301055 C33.75,19.3257422 33.1856367,19.8901055 32.49,19.8901055 L32.49,19.8901055 Z" id="形状" fill="url(#linearGradient-1)"></path>
            </g>
        </g>
    </g>
</svg>