<?xml version="1.0" encoding="UTF-8"?>
<svg width="37px" height="37px" viewBox="0 0 37 37" version="1.1" xmlns="http://www.w3.org/2000/svg" xmlns:xlink="http://www.w3.org/1999/xlink">
    <title>机器人</title>
    <defs>
        <linearGradient x1="50%" y1="0%" x2="50%" y2="100%" id="linearGradient-1">
            <stop stop-color="#4E8EFF" offset="0%"></stop>
            <stop stop-color="#3382E6" offset="100%"></stop>
        </linearGradient>
    </defs>
    <g id="one-hr-手机端" stroke="none" stroke-width="1" fill="none" fill-rule="evenodd">
        <g id="onehr-弹窗" transform="translate(-657.000000, -213.000000)" fill-rule="nonzero">
            <g id="机器人" transform="translate(657.070000, 213.750000)">
                <rect id="矩形" fill="#000000" opacity="0" x="0" y="0" width="36" height="36"></rect>
                <path d="M27.7893,3.01821374 C27.9803064,3.01821374 28.1634854,3.09411072 28.29852,3.2292 C28.4337195,3.36424915 28.5096864,3.54750534 28.5096864,3.7386 C28.5096864,3.92969466 28.4337195,4.11295085 28.29852,4.248 L22.619,9.92821374 L31.32,9.9288 C32.52,9.9288 33.12,10.5288 33.12,11.7288 L33.12,31.1688 C33.12,32.3688 32.52,32.9688 31.32,32.9688 L4.68,32.9688 C3.48,32.9688 2.88,32.3688 2.88,31.1688 L2.88,11.7288 C2.88,10.5288 3.48,9.9288 4.68,9.9288 L13.046,9.92821374 L7.40592,4.2876 C7.15668628,4.03781777 7.13176291,3.64888356 7.33114988,3.37127093 L7.40592,3.2832 C7.53881243,3.15013286 7.71915814,3.07536181 7.90722,3.07536181 C8.09528186,3.07536181 8.27562757,3.15013286 8.40852,3.2832 L8.40852,3.2832 L14.92452,9.7992 C14.964265,9.8388738 14.9983229,9.88208822 15.0266927,9.92782998 L20.5932111,9.92837825 C20.6137514,9.90090441 20.6365077,9.87456351 20.66148,9.8496 L27.28008,3.2292 C27.4151146,3.09411072 27.5982936,3.01821374 27.7893,3.01821374 Z M0.72,16.0488 C1.2,16.0488 1.44,16.2888 1.44,16.7688 L1.44,24.6888 C1.44,25.1288 1.23833333,25.3671333 0.835,25.4038 L0.72,25.4088 C0.24,25.4088 0,25.1688 0,24.6888 L0,16.7688 C0,16.3288 0.201666667,16.0904667 0.605,16.0538 L0.72,16.0488 Z M35.28,16.0488 C35.76,16.0488 36,16.2888 36,16.7688 L36,24.6888 C36,25.1288 35.7983333,25.3671333 35.395,25.4038 L35.28,25.4088 C34.8,25.4088 34.56,25.1688 34.56,24.6888 L34.56,16.7688 C34.56,16.3288 34.7616667,16.0904667 35.165,16.0538 L35.28,16.0488 Z M12.6,15.6888 C11.2082424,15.6888 10.08,16.8170424 10.08,18.2088 C10.08,19.6005576 11.2082424,20.7288 12.6,20.7288 C13.9917576,20.7288 15.12,19.6005576 15.12,18.2088 C15.12,16.8170424 13.9917576,15.6888 12.6,15.6888 Z M23.4,15.6888 C22.0082424,15.6888 20.88,16.8170424 20.88,18.2088 C20.88,19.6005576 22.0082424,20.7288 23.4,20.7288 C24.7917576,20.7288 25.92,19.6005576 25.92,18.2088 C25.92,16.8170424 24.7917576,15.6888 23.4,15.6888 Z" id="形状结合" fill="url(#linearGradient-1)"></path>
            </g>
        </g>
    </g>
</svg>