<?xml version="1.0" encoding="UTF-8"?>
<svg width="32px" height="32px" viewBox="0 0 32 32" version="1.1" xmlns="http://www.w3.org/2000/svg" xmlns:xlink="http://www.w3.org/1999/xlink">
    <title>xunzhang</title>
    <g id="one-hr-手机端" stroke="none" stroke-width="1" fill="none" fill-rule="evenodd">
        <g id="onehr-手机端" transform="translate(-448.000000, -162.000000)" fill-rule="nonzero">
            <g id="编组-28" transform="translate(24.000000, 155.000000)">
                <g id="xunzhang" transform="translate(424.000000, 7.000000)">
                    <rect id="矩形" fill="#000000" opacity="0" x="0" y="0" width="32" height="32"></rect>
                    <path d="M21.0666667,8 C20.8,7.79466666 20.5333333,7.79466666 20.2666667,7.79466666 L14.6666667,1.232 L15.7333333,0 L28,0 L21.0666667,8 Z M16,32 C9.45333334,32 4,26.5466667 4,20 C4,13.4533333 9.45333334,8 16,8 C22.5466667,8 28,13.4533333 28,20 C28,26.5466667 22.5466667,32 16,32 Z M16.416,22.7306667 L18.656,23.8053333 C19.904,24.4506667 21.152,23.376 20.9013333,22.3013333 L20.4026667,20.1546667 L22.1466667,18.6506667 C23.144,17.792 22.6453333,16.5013333 21.152,16.288 L18.6586667,16.0746667 L17.4106667,14.1386667 C16.9146667,13.064 15.1706667,13.064 14.4213333,14.1386667 L13.1733333,16.072 L10.6826667,16.2853333 C9.43466666,16.5013333 8.936,17.792 9.68533334,18.6506667 L11.4293333,20.1546667 L10.9306667,22.3013333 C10.6826667,23.376 12.176,24.2346667 13.1733333,23.8053333 L16.416,22.7306667 L16.416,22.7306667 Z M17.3333333,7 C16.368,6.8 15.5946667,6.6 14.6293333,6.6 C12.696,6.6 10.7626667,7 9.024,8 L4,0 L12.888,0 L17.3333333,7 Z" id="形状" fill="#FFFFFF"></path>
                </g>
            </g>
        </g>
    </g>
</svg>