<?xml version="1.0" encoding="UTF-8"?>
<svg xmlns="http://www.w3.org/2000/svg" xmlns:xlink="http://www.w3.org/1999/xlink" width="266px" height="229px" viewBox="0 0 266 229" version="1.1">
    <title>编组 4</title>
    <defs>
        <linearGradient x1="50%" y1="100%" x2="50%" y2="0%" id="linearGradient-1">
            <stop stop-color="#B4B8BF" stop-opacity="0" offset="0%"/>
            <stop stop-color="#B4B8BF" offset="100%"/>
        </linearGradient>
        <linearGradient x1="50%" y1="100%" x2="50%" y2="0%" id="linearGradient-2">
            <stop stop-color="#B4B8BF" stop-opacity="0" offset="0%"/>
            <stop stop-color="#B4B8BF" offset="100%"/>
        </linearGradient>
        <linearGradient x1="50%" y1="100%" x2="50%" y2="0%" id="linearGradient-3">
            <stop stop-color="#B4B8BF" stop-opacity="0" offset="0%"/>
            <stop stop-color="#B4B8BF" offset="100%"/>
        </linearGradient>
        <linearGradient x1="50%" y1="100%" x2="50%" y2="0%" id="linearGradient-4">
            <stop stop-color="#B4B8BF" stop-opacity="0" offset="0%"/>
            <stop stop-color="#B4B8BF" offset="100%"/>
        </linearGradient>
        <linearGradient x1="100%" y1="49.8792597%" x2="0%" y2="49.8911111%" id="linearGradient-5">
            <stop stop-color="#B4B8BF" stop-opacity="0" offset="0%"/>
            <stop stop-color="#B4B8BF" stop-opacity="0.911806468" offset="91.1806468%"/>
            <stop stop-color="#B4B8BF" offset="100%"/>
        </linearGradient>
    </defs>
    <g id="V2.0" stroke="none" stroke-width="1" fill="none" fill-rule="evenodd">
        <g id="3.战果-红榜、绿榜样式" transform="translate(-224.000000, -1507.000000)">
            <g id="编组-4" transform="translate(224.873853, 1507.772834)">
                <g id="状态:60/异常态/空状态" transform="translate(0.000000, -0.000000)">
                    <g id="background/default/hill">
                        <path d="M0,174.722248 C32.8043299,161.359652 76.9261098,154.678354 132.36534,154.678354 C187.804569,154.678354 231.926349,161.359652 264.730679,174.722248" id="路径-19" fill="url(#linearGradient-1)" opacity="0.16"/>
                        <path d="M183.042355,118.372432 L207.158752,94.2560358 C211.175573,90.2392145 217.688127,90.2392145 221.704948,94.2560358 L245.821345,118.372432 L245.821345,118.372432" id="路径-22备份-2" fill="url(#linearGradient-2)" opacity="0.26"/>
                        <path d="M37.0622951,79.4192037 L55.5058913,60.9756075 C59.5227126,56.9587862 66.0352667,56.9587862 70.0520879,60.9756075 L88.4956842,79.4192037 L88.4956842,79.4192037" id="路径-22" fill="url(#linearGradient-3)" opacity="0.26"/>
                        <path d="M18.1529609,102.488592 L29.7891968,90.8523556 C33.806018,86.8355343 40.3185721,86.8355343 44.3353934,90.8523556 L55.9716293,102.488592 L55.9716293,102.488592" id="路径-22备份" fill="url(#linearGradient-4)" opacity="0.26"/>
                    </g>
                    <ellipse id="椭圆形备份-8" fill="url(#linearGradient-5)" opacity="0.16" cx="131.987153" cy="178.125928" rx="56.7280027" ry="2.64730679"/>
                    <path d="M71.2439256,165.645768 C39.5989336,164.24987 24.872368,160.547894 27.0642289,154.53984 C30.3520203,145.527758 184.800567,144.76915 206.248859,129.846158 C227.697151,114.923165 147.479588,100.159343 147.479588,87.3633017 C147.479588,78.8326076 167.069345,69.629339 206.248859,59.7534962" id="路径-20" stroke="#E6E8ED" stroke-width="3.6" stroke-linecap="round" stroke-dasharray="7.199999999999999" transform="translate(118.372432, 112.699632) rotate(-4.000000) translate(-118.372432, -112.699632) "/>
                    <g id="objects/element/mail" transform="translate(56.728003, 37.818668)">
                        <rect id="矩形" fill="#C9CDD4" x="22.6912011" y="66.1826698" width="105.892272" height="63.535363" rx="8.36129032"/>
                        <rect id="矩形" fill="#E6E8ED" x="35.5495483" y="23.4475744" width="79.7973904" height="92.277551" rx="9.29032258"/>
                        <rect id="矩形" fill="#F0F2F5" x="43.113282" y="43.113282" width="41.978722" height="5.67280027" rx="2.83640013"/>
                        <rect id="矩形备份" fill="#F0F2F5" x="43.113282" y="55.5934426" width="41.978722" height="5.67280027" rx="2.83640013"/>
                        <rect id="矩形备份-2" fill="#F0F2F5" x="43.113282" y="68.8299766" width="58.2407494" height="5.67280027" rx="2.83640013"/>
                        <path d="M22.6912011,74.5027768 L123.636799,119.665019 C126.646183,121.011394 128.583473,124.000456 128.583473,127.297291 L128.583473,129.95813 C128.583473,134.420596 124.965929,138.03814 120.503463,138.03814 L31.0524914,138.03814 C26.4346783,138.03814 22.6912011,134.294663 22.6912011,129.67685 L22.6912011,74.5027768 L22.6912011,74.5027768 Z" id="矩形" fill="#D7DAE0" transform="translate(75.637337, 106.270458) scale(-1, 1) translate(-75.637337, -106.270458) "/>
                        <path d="M22.6912011,74.5027768 L123.636799,119.665019 C126.646183,121.011394 128.583473,124.000456 128.583473,127.297291 L128.583473,129.95813 C128.583473,134.420596 124.965929,138.03814 120.503463,138.03814 L31.0524914,138.03814 C26.4346783,138.03814 22.6912011,134.294663 22.6912011,129.67685 L22.6912011,74.5027768 L22.6912011,74.5027768 Z" id="矩形" fill="#DFE2E8"/>
                    </g>
                    <g id="编组" transform="translate(189.471529, 20.800268)">
                        <g id="objects/element/paperairplane" transform="translate(22.691201, 22.691201) scale(-1, 1) rotate(-29.000000) translate(-22.691201, -22.691201) ">
                            <path d="M26.8993214,39.2778819 L29.9291148,26.9901698 L5.00913585,4.10251789 C4.90974694,4.01123456 4.75517655,4.01780543 4.66389322,4.11719433 C4.58895111,4.19879098 4.57828724,4.32059861 4.6379109,4.41397607 L26.8993214,39.2778819 L26.8993214,39.2778819 Z" id="路径-17" fill="#C9CDD4"/>
                            <polygon id="路径-14" fill="#B4B8BF" points="21.7030878 33.6002574 27.597699 30.1722079 26.8993214 39.2778819"/>
                            <path d="M4.94711036,3.40078659 L42.0684896,19.3145841 C42.460072,19.4824541 42.6414268,19.9359798 42.4735569,20.3275622 C42.4029464,20.492272 42.2771942,20.6272598 42.117893,20.709347 L30.0807154,26.9120506 C29.9896431,26.9589798 29.8789651,26.94411 29.8035087,26.8748074 L7.11420164,6.0355847 L27.4311338,29.9759314 L27.4311338,29.9759314 L27.4391194,29.9858545 C27.5209553,30.0931563 27.5003112,30.2464828 27.3930094,30.3283187 L27.3930094,30.3283187 L12.5230198,41.6692313 C12.3859459,41.7737736 12.2258378,41.8439839 12.0560797,41.873993 C11.468719,41.9778242 10.9083973,41.585846 10.8045661,40.9984853 L10.8045661,40.9984853 L4.28286009,4.10596089 C4.2526236,3.93491664 4.31545041,3.760677 4.44788618,3.64828863 C4.49954364,3.6044508 4.55766679,3.57320881 4.61851672,3.5542565 C4.62711145,3.52063613 4.6450891,3.48815678 4.67087535,3.46008082 C4.74103606,3.38369014 4.85177996,3.35991881 4.94711036,3.40078659 Z" id="形状结合" fill="#D7DAE0"/>
                        </g>
                    </g>
                    <g id="objects/element/paperairplane" transform="translate(212.019919, 43.532419) scale(-1, 1) rotate(-29.000000) translate(-212.019919, -43.532419) translate(189.223667, 20.736166)">
                        <path d="M26.8993214,39.2778819 L29.9291148,26.9901698 L5.00913585,4.10251789 C4.90974694,4.01123456 4.75517655,4.01780543 4.66389322,4.11719433 C4.58895111,4.19879098 4.57828724,4.32059861 4.6379109,4.41397607 L26.8993214,39.2778819 L26.8993214,39.2778819 Z" id="路径-17" fill="#C9CDD4"/>
                        <polygon id="路径-14" fill="#B4B8BF" points="21.7030878 33.6002574 27.597699 30.1722079 26.8993214 39.2778819"/>
                        <path d="M4.94711036,3.40078659 L42.0684896,19.3145841 C42.460072,19.4824541 42.6414268,19.9359798 42.4735569,20.3275622 C42.4029464,20.492272 42.2771942,20.6272598 42.117893,20.709347 L30.0807154,26.9120506 C29.9896431,26.9589798 29.8789651,26.94411 29.8035087,26.8748074 L7.11420164,6.0355847 L27.4311338,29.9759314 L27.4311338,29.9759314 L27.4391194,29.9858545 C27.5209553,30.0931563 27.5003112,30.2464828 27.3930094,30.3283187 L27.3930094,30.3283187 L12.5230198,41.6692313 C12.3859459,41.7737736 12.2258378,41.8439839 12.0560797,41.873993 C11.468719,41.9778242 10.9083973,41.585846 10.8045661,40.9984853 L10.8045661,40.9984853 L4.28286009,4.10596089 C4.2526236,3.93491664 4.31545041,3.760677 4.44788618,3.64828863 C4.49954364,3.6044508 4.55766679,3.57320881 4.61851672,3.5542565 C4.62711145,3.52063613 4.6450891,3.48815678 4.67087535,3.46008082 C4.74103606,3.38369014 4.85177996,3.35991881 4.94711036,3.40078659 Z" id="形状结合" fill="#D7DAE0"/>
                    </g>
                    <g id="objects/element/paperairplane" transform="translate(211.876593, 43.032582) scale(-1, 1) rotate(-29.000000) translate(-211.876593, -43.032582) translate(191.654111, 22.810100)">
                        <path d="M23.9578694,37.0717929 L26.9876628,24.7840808 L2.06768386,1.8964289 C1.96829495,1.80514557 1.81372456,1.81171643 1.72244123,1.91110534 C1.64749912,1.99270199 1.63683525,2.11450962 1.69645891,2.20788707 L23.9578694,37.0717929 L23.9578694,37.0717929 Z" id="路径-17" fill="#C9CDD4"/>
                        <polygon id="路径-14" fill="#B4B8BF" points="18.7616358 31.3941684 24.656247 27.9661189 23.9578694 37.0717929"/>
                        <path d="M2.00565837,1.1946976 L39.1270376,17.1084951 C39.51862,17.2763651 39.6999748,17.7298908 39.5321049,18.1214732 C39.4614944,18.286183 39.3357422,18.4211708 39.1764411,18.503258 L27.1392634,24.7059616 C27.0481911,24.7528908 26.9375131,24.738021 26.8620567,24.6687184 L4.17274965,3.82949571 L24.4896818,27.7698425 L24.4896818,27.7698425 L24.4976674,27.7797655 C24.5795034,27.8870673 24.5588592,28.0403938 24.4515575,28.1222298 L24.4515575,28.1222298 L9.58156779,39.4631423 C9.44449388,39.5676846 9.28438581,39.6378949 9.11462773,39.667904 C8.52726702,39.7717352 7.9669453,39.3797571 7.86311413,38.7923963 L7.86311413,38.7923963 L1.3414081,1.8998719 C1.31117161,1.72882765 1.37399842,1.55458801 1.50643419,1.44219964 C1.55809165,1.3983618 1.6162148,1.36711981 1.67706473,1.34816751 C1.68565946,1.31454714 1.70363711,1.28206779 1.72942336,1.25399183 C1.79958407,1.17760114 1.91032797,1.15382981 2.00565837,1.1946976 Z" id="形状结合" fill="#D7DAE0"/>
                    </g>
                </g>
                <text id="Label备份-28" font-family="PingFangSC-Regular, PingFang SC" font-size="26" font-weight="normal" fill="#C9CDD4">
                    <tspan x="78.8768494" y="218.227166">暂无数据</tspan>
                </text>
            </g>
        </g>
    </g>
</svg>
