<?xml version="1.0" encoding="UTF-8"?>
<svg width="124px" height="124px" viewBox="0 0 124 124" version="1.1" xmlns="http://www.w3.org/2000/svg" xmlns:xlink="http://www.w3.org/1999/xlink">
    <title>编组备份</title>
    <defs>
        <rect id="path-1" x="0.874967619" y="0" width="122.495467" height="123.483333" rx="60"></rect>
    </defs>
    <g id="V2.0" stroke="none" stroke-width="1" fill="none" fill-rule="evenodd">
        <g id="2.管理层1" transform="translate(-50.000000, -208.000000)">
            <g id="编组备份" transform="translate(50.000000, 208.000000)">
                <mask id="mask-2" fill="white">
                    <use xlink:href="#path-1"></use>
                </mask>
                <use id="蒙版" fill="#F2F2F2" xlink:href="#path-1"></use>
                <g id="编组" mask="url(#mask-2)">
                    <g transform="translate(13.274613, 26.460714)">
                        <g transform="translate(0.247547, 0.471780)">
                            <path d="M77.0319527,38.9125737 C77.0319527,55.7414483 65.0269329,69.3902381 50.2174787,69.3902381 C35.4080245,69.3902381 23.3974898,55.7372786 23.3974898,38.9111838 C23.3974898,22.085089 35.4025095,8.4335192 50.2133424,8.4335192 C65.0241752,8.4335192 77.0319527,22.0767496 77.0319527,38.9111838" id="路径" fill="#F6CAA9" fill-rule="nonzero"></path>
                            <path d="M78.052228,30.0544041 C77.9233627,32.5225917 77.4079012,34.3412563 76.634709,35.9001115 C76.5058437,33.6917331 75.9903821,31.743164 75.0883245,30.0544041 C71.6089594,23.1694597 62.7172486,20.5713676 50.4750382,20.5713676 C38.8771546,20.5713676 31.7895592,23.9488874 27.6658671,30.1843086 C26.2483481,32.2627824 23.6710406,33.9515424 23.2844445,36.8094438 C21.8669254,35.2505885 20.9648677,33.0422101 20.9648677,30.0544041 C20.9648677,17.7134662 28.6967901,1.34548524 41.9699235,0.566057563 C43.7740388,0.436153009 46.4802116,2.38472214 48.2843269,2.38472214 C63.2327101,2.90434059 78.9542857,7.3210973 78.052228,30.0544041 L78.052228,30.0544041 Z" id="路径" fill="#674C53" fill-rule="nonzero"></path>
                            <polygon id="路径" fill="#F6CAA9" fill-rule="nonzero" points="39.8490684 89.0624582 60.4162994 89.0624582 60.4162994 64.5881436 39.8490684 64.5881436"></polygon>
                            <path d="M39.9304163,74.8968159 C39.9304163,74.8968159 37.6264783,74.3769943 38.1752321,77.8489575 C38.7805156,81.6697848 50.1319947,113.837564 50.1319945,113.837564 L62.1439083,79.382014 C62.1439083,79.382014 63.2400367,74.787014 60.4576628,75.1497771 L50.1319945,84.0868157 L39.9304163,74.8968159 L39.9304163,74.8968159 Z" id="路径" fill="#FFFFFF" fill-rule="nonzero"></path>
                            <path d="M26.7865261,40.6930319 C26.880283,43.1086731 25.0382356,45.1462624 22.6667375,45.2505046 C20.2952393,45.1462622 18.453192,43.110063 18.546949,40.6930319 C18.4531921,38.2787806 20.2952395,36.2411913 22.6667375,36.136949 C25.0382356,36.2411913 26.880283,38.2773906 26.7865261,40.6930319 M81.8218273,40.637436 C81.9155841,43.0530772 80.0735368,45.0906665 77.7020388,45.1935188 C75.3305406,45.0906665 73.4884933,43.0530772 73.5822501,40.637436 C73.4884933,38.2217948 75.3305406,36.1842055 77.7020388,36.0813531 C80.0735369,36.1842054 81.9155842,38.2217947 81.8218273,40.637436" id="形状" fill="#F6CAA9" fill-rule="nonzero"></path>
                            <path d="M71.78846,82.1008476 C71.78846,82.1008476 94.0350426,88.8821558 98.1810279,93.9552802 C101.917516,98.5252621 77.2236028,113.997597 77.2236028,113.997597 L57.991029,119.104079 L71.78846,82.1008476 Z" id="路径" fill="#FFFFFF" fill-rule="nonzero"></path>
                            <polygon id="路径" fill="#FFFFFF" fill-rule="nonzero" points="62.3286644 76.5760064 69.8554134 79.703275 71.9980343 86.2677591 68.6517402 90.0232613 70.7419676 93.3590143 57.0493236 119.522438 47.1524554 120.147892"></polygon>
                            <path d="M38.1173234,74.8692127 C31.3477262,75.8406933 24.7685758,77.8648179 18.6145091,80.8693987 C10.6410361,84.7819592 2.58345773,90.6918018 0.719349838,92.9712331 C-3.01575969,97.5426049 23.4457471,113.914203 23.4457471,113.914203 L52.0691776,117.173512 L38.1173234,74.8692127 Z" id="路径" fill="#FFFFFF" fill-rule="nonzero"></path>
                            <path d="M62.393467,75.8004438 C69.1630642,76.7719244 75.7422146,78.7960489 81.8962814,81.8006297 C89.8683756,85.7131902 97.9273328,91.6230328 99.7914405,93.9024641 C103.52655,98.472446 77.0636645,114.845434 77.0636646,114.845434 L48.4402339,118.110303 L62.393467,75.8004438 L62.393467,75.8004438 Z" id="路径" fill="#FFFFFF" fill-rule="nonzero"></path>
                            <path d="M39.7939173,67.0510412 C42.7915932,68.4165496 46.0484529,69.1071346 49.3378185,69.0747315 C53.0949884,69.3040645 56.8521584,68.6299645 60.307376,67.108027 L60.307376,69.1303274 C60.307376,69.1303274 53.0122618,73.0623464 49.7211187,73.0623464 C46.4299757,73.0623464 39.7387663,68.4200899 39.7387663,68.4200899 L39.7939173,67.0510412 L39.7939173,67.0510412 Z" id="路径" fill="#ECB485" fill-rule="nonzero"></path>
                        </g>
                    </g>
                </g>
            </g>
        </g>
    </g>
</svg>