<?xml version="1.0" encoding="UTF-8"?>
<svg width="360px" height="263px" viewBox="0 0 360 263" version="1.1" xmlns="http://www.w3.org/2000/svg" xmlns:xlink="http://www.w3.org/1999/xlink">
    <title>开发中</title>
    <defs>
        <linearGradient x1="50.0013925%" y1="0%" x2="50.0013925%" y2="100%" id="linearGradient-1">
            <stop stop-color="#81CFFF" offset="0%"></stop>
            <stop stop-color="#5ECFFF" stop-opacity="0" offset="100%"></stop>
        </linearGradient>
        <linearGradient x1="49.9926718%" y1="0.00134322903%" x2="49.9926718%" y2="99.9986568%" id="linearGradient-2">
            <stop stop-color="#81CFFF" offset="0%"></stop>
            <stop stop-color="#5ECFFF" stop-opacity="0" offset="100%"></stop>
        </linearGradient>
        <linearGradient x1="49.9845964%" y1="0.00160536707%" x2="49.9845964%" y2="100.018611%" id="linearGradient-3">
            <stop stop-color="#81CFFF" offset="0%"></stop>
            <stop stop-color="#5ECFFF" stop-opacity="0" offset="100%"></stop>
        </linearGradient>
        <linearGradient x1="50.0061013%" y1="0.0015646865%" x2="50.0061013%" y2="100.015288%" id="linearGradient-4">
            <stop stop-color="#81CFFF" offset="0%"></stop>
            <stop stop-color="#5ECFFF" stop-opacity="0" offset="100%"></stop>
        </linearGradient>
        <linearGradient x1="49.9999688%" y1="5.31957582e-16%" x2="49.9999688%" y2="100%" id="linearGradient-5">
            <stop stop-color="#81CFFF" offset="0%"></stop>
            <stop stop-color="#5ECFFF" stop-opacity="0" offset="100%"></stop>
        </linearGradient>
    </defs>
    <g id="NP分析" stroke="none" stroke-width="1" fill="none" fill-rule="evenodd">
        <g id="13.系统升级中，请耐心等待" transform="translate(-190.000000, -403.000000)">
            <g id="开发中" transform="translate(190.000000, 403.000000)">
                <path d="M359.28,262.12 C336.28,239.12 298.28,224.43 179.75,224.43 C61.22,224.43 23.24,239.1 0.21,262.12 L359.28,262.12 Z" id="路径" fill="url(#linearGradient-1)" fill-rule="nonzero" opacity="0.4"></path>
                <g id="编组" opacity="0.7" transform="translate(29.000000, 0.000000)" fill-rule="nonzero">
                    <path d="M298.66,26.68 L236.07,26.68 C234.576594,26.6179202 233.314896,27.7767133 233.25,29.27 L233.25,201.44 C233.314896,202.933287 234.576594,204.09208 236.07,204.03 L298.66,204.03 C300.151368,204.086524 301.409741,202.930784 301.48,201.44 L301.48,29.27 C301.409741,27.7792157 300.151368,26.6234762 298.66,26.68 Z M246.3,147 C246.292298,147.242368 246.18712,147.471373 246.00829,147.635144 C245.829459,147.798915 245.592109,147.883594 245.35,147.87 L241.75,147.87 C241.507891,147.883594 241.270541,147.798915 241.09171,147.635144 C240.91288,147.471373 240.807702,147.242368 240.8,147 L240.8,127.27 C240.810379,127.028571 240.916359,126.801185 241.094571,126.63798 C241.272783,126.474775 241.508592,126.389155 241.75,126.4 L245.35,126.4 C245.591408,126.389155 245.827217,126.474775 246.005429,126.63798 C246.183641,126.801185 246.289621,127.028571 246.3,127.27 L246.3,147 Z M246.3,116.77 C246.289621,117.011429 246.183641,117.238815 246.005429,117.40202 C245.827217,117.565225 245.591408,117.650845 245.35,117.64 L241.75,117.64 C241.508592,117.650845 241.272783,117.565225 241.094571,117.40202 C240.916359,117.238815 240.810379,117.011429 240.8,116.77 L240.8,97 C240.810379,96.7585713 240.916359,96.5311847 241.094571,96.3679797 C241.272783,96.2047747 241.508592,96.119155 241.75,96.13 L245.35,96.13 C245.591408,96.119155 245.827217,96.2047747 246.005429,96.3679797 C246.183641,96.5311847 246.289621,96.7585713 246.3,97 L246.3,116.77 Z M246.3,86.53 C246.289621,86.7714287 246.183641,86.9988153 246.005429,87.1620203 C245.827217,87.3252253 245.591408,87.410845 245.35,87.4 L241.75,87.4 C241.508592,87.410845 241.272783,87.3252253 241.094571,87.1620203 C240.916359,86.9988153 240.810379,86.7714287 240.8,86.53 L240.8,66.8 C240.810379,66.5585713 240.916359,66.3311847 241.094571,66.1679797 C241.272783,66.0047747 241.508592,65.919155 241.75,65.93 L245.35,65.93 C245.591408,65.919155 245.827217,66.0047747 246.005429,66.1679797 C246.183641,66.3311847 246.289621,66.5585713 246.3,66.8 L246.3,86.53 Z M246.3,56.29 C246.289621,56.5314287 246.183641,56.7588153 246.005429,56.9220203 C245.827217,57.0852253 245.591408,57.170845 245.35,57.16 L241.75,57.16 C241.508592,57.170845 241.272783,57.0852253 241.094571,56.9220203 C240.916359,56.7588153 240.810379,56.5314287 240.8,56.29 L240.8,36.56 C240.810379,36.3185713 240.916359,36.0911847 241.094571,35.9279797 C241.272783,35.7647747 241.508592,35.679155 241.75,35.69 L245.35,35.69 C245.591408,35.679155 245.827217,35.7647747 246.005429,35.9279797 C246.183641,36.0911847 246.289621,36.3185713 246.3,36.56 L246.3,56.29 Z M258,147 C257.992221,147.240543 257.888425,147.46795 257.711797,147.631425 C257.535169,147.7949 257.300425,147.880822 257.06,147.87 L253.45,147.87 C253.208592,147.880845 252.972783,147.795225 252.794571,147.63202 C252.616359,147.468815 252.510379,147.241429 252.5,147 L252.5,127.27 C252.526939,126.769698 252.949264,126.382937 253.45,126.4 L257.06,126.4 C257.558926,126.383072 257.978344,126.771256 258,127.27 L258,147 Z M258,116.77 C257.978344,117.268744 257.558926,117.656928 257.06,117.64 L253.45,117.64 C252.949264,117.657063 252.526939,117.270302 252.5,116.77 L252.5,97 C252.526939,96.4996977 252.949264,96.1129374 253.45,96.13 L257.06,96.13 C257.558926,96.1130725 257.978344,96.5012564 258,97 L258,116.77 Z M258,86.53 C257.978344,87.0287436 257.558926,87.4169275 257.06,87.4 L253.45,87.4 C252.949264,87.4170626 252.526939,87.0303023 252.5,86.53 L252.5,66.8 C252.526939,66.2996977 252.949264,65.9129374 253.45,65.93 L257.06,65.93 C257.558926,65.9130725 257.978344,66.3012564 258,66.8 L258,86.53 Z M258,56.29 C257.978344,56.7887436 257.558926,57.1769275 257.06,57.16 L253.45,57.16 C252.949264,57.1770626 252.526939,56.7903023 252.5,56.29 L252.5,36.56 C252.526939,36.0596977 252.949264,35.6729374 253.45,35.69 L257.06,35.69 C257.558926,35.6730725 257.978344,36.0612564 258,36.56 L258,56.29 Z M269.7,147 C269.692221,147.240543 269.588425,147.46795 269.411797,147.631425 C269.235169,147.7949 269.000425,147.880822 268.76,147.87 L265.15,147.87 C264.909575,147.880822 264.674831,147.7949 264.498203,147.631425 C264.321575,147.46795 264.217779,147.240543 264.21,147 L264.21,127.27 C264.231656,126.771256 264.651074,126.383072 265.15,126.4 L268.76,126.4 C269.258926,126.383072 269.678344,126.771256 269.7,127.27 L269.7,147 Z M269.7,116.77 C269.678344,117.268744 269.258926,117.656928 268.76,117.64 L265.15,117.64 C264.651074,117.656928 264.231656,117.268744 264.21,116.77 L264.21,97 C264.231656,96.5012564 264.651074,96.1130725 265.15,96.13 L268.76,96.13 C269.258926,96.1130725 269.678344,96.5012564 269.7,97 L269.7,116.77 Z M269.7,86.53 C269.678344,87.0287436 269.258926,87.4169275 268.76,87.4 L265.15,87.4 C264.651074,87.4169275 264.231656,87.0287436 264.21,86.53 L264.21,66.8 C264.231656,66.3012564 264.651074,65.9130725 265.15,65.93 L268.76,65.93 C269.258926,65.9130725 269.678344,66.3012564 269.7,66.8 L269.7,86.53 Z M269.7,56.29 C269.678344,56.7887436 269.258926,57.1769275 268.76,57.16 L265.15,57.16 C264.651074,57.1769275 264.231656,56.7887436 264.21,56.29 L264.21,36.56 C264.231656,36.0612564 264.651074,35.6730725 265.15,35.69 L268.76,35.69 C269.258926,35.6730725 269.678344,36.0612564 269.7,36.56 L269.7,56.29 Z M281.4,147 C281.392221,147.240543 281.288425,147.46795 281.111797,147.631425 C280.935169,147.7949 280.700425,147.880822 280.46,147.87 L276.85,147.87 C276.609575,147.880822 276.374831,147.7949 276.198203,147.631425 C276.021575,147.46795 275.917779,147.240543 275.91,147 L275.91,127.27 C275.931656,126.771256 276.351074,126.383072 276.85,126.4 L280.46,126.4 C280.958926,126.383072 281.378344,126.771256 281.4,127.27 L281.4,147 Z M281.4,116.77 C281.378344,117.268744 280.958926,117.656928 280.46,117.64 L276.85,117.64 C276.351074,117.656928 275.931656,117.268744 275.91,116.77 L275.91,97 C275.931656,96.5012564 276.351074,96.1130725 276.85,96.13 L280.46,96.13 C280.958926,96.1130725 281.378344,96.5012564 281.4,97 L281.4,116.77 Z M281.4,86.53 C281.378344,87.0287436 280.958926,87.4169275 280.46,87.4 L276.85,87.4 C276.351074,87.4169275 275.931656,87.0287436 275.91,86.53 L275.91,66.8 C275.931656,66.3012564 276.351074,65.9130725 276.85,65.93 L280.46,65.93 C280.958926,65.9130725 281.378344,66.3012564 281.4,66.8 L281.4,86.53 Z M281.4,56.29 C281.378344,56.7887436 280.958926,57.1769275 280.46,57.16 L276.85,57.16 C276.351074,57.1769275 275.931656,56.7887436 275.91,56.29 L275.91,36.56 C275.931656,36.0612564 276.351074,35.6730725 276.85,35.69 L280.46,35.69 C280.958926,35.6730725 281.378344,36.0612564 281.4,36.56 L281.4,56.29 Z M293.11,147 C293.099621,147.241429 292.993641,147.468815 292.815429,147.63202 C292.637217,147.795225 292.401408,147.880845 292.16,147.87 L288.55,147.87 C288.309575,147.880822 288.074831,147.7949 287.898203,147.631425 C287.721575,147.46795 287.617779,147.240543 287.61,147 L287.61,127.27 C287.631656,126.771256 288.051074,126.383072 288.55,126.4 L292.16,126.4 C292.660736,126.382937 293.083061,126.769698 293.11,127.27 L293.11,147 Z M293.11,116.77 C293.083061,117.270302 292.660736,117.657063 292.16,117.64 L288.55,117.64 C288.051074,117.656928 287.631656,117.268744 287.61,116.77 L287.61,97 C287.631656,96.5012564 288.051074,96.1130725 288.55,96.13 L292.16,96.13 C292.660736,96.1129374 293.083061,96.4996977 293.11,97 L293.11,116.77 Z M293.11,86.53 C293.083061,87.0303023 292.660736,87.4170626 292.16,87.4 L288.55,87.4 C288.051074,87.4169275 287.631656,87.0287436 287.61,86.53 L287.61,66.8 C287.631656,66.3012564 288.051074,65.9130725 288.55,65.93 L292.16,65.93 C292.660736,65.9129374 293.083061,66.2996977 293.11,66.8 L293.11,86.53 Z M293.11,56.29 C293.083061,56.7903023 292.660736,57.1770626 292.16,57.16 L288.55,57.16 C288.051074,57.1769275 287.631656,56.7887436 287.61,56.29 L287.61,36.56 C287.631656,36.0612564 288.051074,35.6730725 288.55,35.69 L292.16,35.69 C292.660736,35.6729374 293.083061,36.0596977 293.11,36.56 L293.11,56.29 Z" id="形状" fill="url(#linearGradient-2)" opacity="0.4"></path>
                    <path d="M149.1,55.61 L89.8,55.61 C88.314261,55.5592094 87.0649597,56.714813 87,58.2 L87,201.44 C87.080781,202.913294 88.3253817,204.051215 89.8,204 L149.1,204 C150.593406,204.06208 151.855104,202.903287 151.92,201.41 L151.92,58.2 C151.855104,56.7067133 150.593406,55.5479202 149.1,55.61 L149.1,55.61 Z M100.47,159.37 C100.442923,160.006862 99.9070383,160.502556 99.27,160.48 L93.87,160.48 C93.2329617,160.502556 92.6970766,160.006862 92.67,159.37 L92.67,154.15 C92.6829763,153.8449 92.816769,153.557489 93.041878,153.35114 C93.2669869,153.14479 93.5649253,153.036447 93.87,153.05 L99.27,153.05 C99.5750747,153.036447 99.8730131,153.14479 100.098122,153.35114 C100.323231,153.557489 100.457024,153.8449 100.47,154.15 L100.47,159.37 Z M100.47,146.49 C100.457024,146.7951 100.323231,147.082511 100.098122,147.28886 C99.8730131,147.49521 99.5750747,147.603553 99.27,147.59 L93.87,147.59 C93.5649253,147.603553 93.2669869,147.49521 93.041878,147.28886 C92.816769,147.082511 92.6829763,146.7951 92.67,146.49 L92.67,141.27 C92.6970766,140.633138 93.2329617,140.137444 93.87,140.16 L99.27,140.16 C99.9070383,140.137444 100.442923,140.633138 100.47,141.27 L100.47,146.49 Z M100.47,133.6 C100.442923,134.236862 99.9070383,134.732556 99.27,134.71 L93.87,134.71 C93.2329617,134.732556 92.6970766,134.236862 92.67,133.6 L92.67,128.38 C92.6829763,128.0749 92.816769,127.787489 93.041878,127.58114 C93.2669869,127.37479 93.5649253,127.266447 93.87,127.28 L99.27,127.28 C99.5750747,127.266447 99.8730131,127.37479 100.098122,127.58114 C100.323231,127.787489 100.457024,128.0749 100.47,128.38 L100.47,133.6 Z M100.47,120.72 C100.457024,121.0251 100.323231,121.312511 100.098122,121.51886 C99.8730131,121.72521 99.5750747,121.833553 99.27,121.82 L93.87,121.82 C93.5649253,121.833553 93.2669869,121.72521 93.041878,121.51886 C92.816769,121.312511 92.6829763,121.0251 92.67,120.72 L92.67,115.5 C92.6970766,114.863138 93.2329617,114.367444 93.87,114.39 L99.27,114.39 C99.9070383,114.367444 100.442923,114.863138 100.47,115.5 L100.47,120.72 Z M100.47,107.83 C100.442923,108.466862 99.9070383,108.962556 99.27,108.94 L93.87,108.94 C93.2329617,108.962556 92.6970766,108.466862 92.67,107.83 L92.67,102.62 C92.6803816,102.313135 92.8130455,102.023163 93.0384442,101.814669 C93.2638428,101.606176 93.563257,101.496475 93.87,101.51 L99.27,101.51 C99.576743,101.496475 99.8761572,101.606176 100.101556,101.814669 C100.326954,102.023163 100.459618,102.313135 100.47,102.62 L100.47,107.83 Z M100.47,94.95 C100.457024,95.2550998 100.323231,95.5425106 100.098122,95.7488604 C99.8730131,95.9552102 99.5750747,96.063553 99.27,96.05 L93.87,96.05 C93.5649253,96.063553 93.2669869,95.9552102 93.041878,95.7488604 C92.816769,95.5425106 92.6829763,95.2550998 92.67,94.95 L92.67,89.73 C92.6970766,89.0931378 93.2329617,88.5974441 93.87,88.62 L99.27,88.62 C99.9070383,88.5974441 100.442923,89.0931378 100.47,89.73 L100.47,94.95 Z M100.47,82.06 C100.442923,82.6968622 99.9070383,83.1925559 99.27,83.17 L93.87,83.17 C93.2329617,83.1925559 92.6970766,82.6968622 92.67,82.06 L92.67,76.85 C92.6803816,76.5431346 92.8130455,76.2531631 93.0384442,76.0446694 C93.2638428,75.8361756 93.563257,75.7264748 93.87,75.74 L99.27,75.74 C99.576743,75.7264748 99.8761572,75.8361756 100.101556,76.0446694 C100.326954,76.2531631 100.459618,76.5431346 100.47,76.85 L100.47,82.06 Z M100.47,69.18 C100.457024,69.4850998 100.323231,69.7725106 100.098122,69.9788604 C99.8730131,70.1852102 99.5750747,70.293553 99.27,70.28 L93.87,70.28 C93.5649253,70.293553 93.2669869,70.1852102 93.041878,69.9788604 C92.816769,69.7725106 92.6829763,69.4850998 92.67,69.18 L92.67,64 C92.6970766,63.3631378 93.2329617,62.8674441 93.87,62.89 L99.27,62.89 C99.9070383,62.8674441 100.442923,63.3631378 100.47,64 L100.47,69.18 Z M110.55,159.37 C110.522923,160.006862 109.987038,160.502556 109.35,160.48 L104,160.48 C103.692274,160.49355 103.391793,160.384153 103.164809,160.175928 C102.937826,159.967704 102.802979,159.677751 102.79,159.37 L102.79,154.15 C102.82236,153.513048 103.362855,153.021688 104,153.05 L109.4,153.05 C109.705075,153.036447 110.003013,153.14479 110.228122,153.35114 C110.453231,153.557489 110.587024,153.8449 110.6,154.15 L110.55,159.37 Z M110.55,146.49 C110.537024,146.7951 110.403231,147.082511 110.178122,147.28886 C109.953013,147.49521 109.655075,147.603553 109.35,147.59 L104,147.59 C103.362855,147.618312 102.82236,147.126952 102.79,146.49 L102.79,141.27 C102.802979,140.962249 102.937826,140.672296 103.164809,140.464072 C103.391793,140.255847 103.692274,140.14645 104,140.16 L109.4,140.16 C110.037038,140.137444 110.572923,140.633138 110.6,141.27 L110.55,146.49 Z M110.55,133.6 C110.522923,134.236862 109.987038,134.732556 109.35,134.71 L104,134.71 C103.692274,134.72355 103.391793,134.614153 103.164809,134.405928 C102.937826,134.197704 102.802979,133.907751 102.79,133.6 L102.79,128.38 C102.82236,127.743048 103.362855,127.251688 104,127.28 L109.4,127.28 C109.705075,127.266447 110.003013,127.37479 110.228122,127.58114 C110.453231,127.787489 110.587024,128.0749 110.6,128.38 L110.55,133.6 Z M110.55,120.72 C110.537024,121.0251 110.403231,121.312511 110.178122,121.51886 C109.953013,121.72521 109.655075,121.833553 109.35,121.82 L104,121.82 C103.362855,121.848312 102.82236,121.356952 102.79,120.72 L102.79,115.5 C102.802979,115.192249 102.937826,114.902296 103.164809,114.694072 C103.391793,114.485847 103.692274,114.37645 104,114.39 L109.4,114.39 C110.037038,114.367444 110.572923,114.863138 110.6,115.5 L110.55,120.72 Z M110.55,107.83 C110.522923,108.466862 109.987038,108.962556 109.35,108.94 L104,108.94 C103.692274,108.95355 103.391793,108.844153 103.164809,108.635928 C102.937826,108.427704 102.802979,108.137751 102.79,107.83 L102.79,102.62 C102.802979,102.312249 102.937826,102.022296 103.164809,101.814072 C103.391793,101.605847 103.692274,101.49645 104,101.51 L109.4,101.51 C109.706743,101.496475 110.006157,101.606176 110.231556,101.814669 C110.456954,102.023163 110.589618,102.313135 110.6,102.62 L110.55,107.83 Z M110.55,94.95 C110.537024,95.2550998 110.403231,95.5425106 110.178122,95.7488604 C109.953013,95.9552102 109.655075,96.063553 109.35,96.05 L104,96.05 C103.362855,96.0783117 102.82236,95.5869523 102.79,94.95 L102.79,89.73 C102.802979,89.422249 102.937826,89.1322962 103.164809,88.9240715 C103.391793,88.7158468 103.692274,88.6064495 104,88.62 L109.4,88.62 C110.037038,88.5974441 110.572923,89.0931378 110.6,89.73 L110.55,94.95 Z M110.55,82.06 C110.522923,82.6968622 109.987038,83.1925559 109.35,83.17 L104,83.17 C103.692274,83.1835505 103.391793,83.0741532 103.164809,82.8659285 C102.937826,82.6577038 102.802979,82.367751 102.79,82.06 L102.79,76.85 C102.802979,76.542249 102.937826,76.2522962 103.164809,76.0440715 C103.391793,75.8358468 103.692274,75.7264495 104,75.74 L109.4,75.74 C109.706743,75.7264748 110.006157,75.8361756 110.231556,76.0446694 C110.456954,76.2531631 110.589618,76.5431346 110.6,76.85 L110.55,82.06 Z M110.55,69.18 C110.537024,69.4850998 110.403231,69.7725106 110.178122,69.9788604 C109.953013,70.1852102 109.655075,70.293553 109.35,70.28 L104,70.28 C103.362855,70.3083117 102.82236,69.8169523 102.79,69.18 L102.79,64 C102.792421,63.6852257 102.922663,63.3849512 103.150834,63.1680946 C103.379005,62.951238 103.685509,62.8364224 104,62.85 L109.4,62.85 C110.037038,62.8274441 110.572923,63.3231378 110.6,63.96 L110.55,69.18 Z M120.63,159.37 C120.617021,159.677751 120.482174,159.967704 120.255191,160.175928 C120.028207,160.384153 119.727726,160.49355 119.42,160.48 L114,160.48 C113.362962,160.502556 112.827077,160.006862 112.8,159.37 L112.8,154.15 C112.812976,153.8449 112.946769,153.557489 113.171878,153.35114 C113.396987,153.14479 113.694925,153.036447 114,153.05 L119.4,153.05 C120.037145,153.021688 120.57764,153.513048 120.61,154.15 L120.63,159.37 Z M120.63,146.49 C120.59764,147.126952 120.057145,147.618312 119.42,147.59 L114,147.59 C113.694925,147.603553 113.396987,147.49521 113.171878,147.28886 C112.946769,147.082511 112.812976,146.7951 112.8,146.49 L112.8,141.27 C112.827077,140.633138 113.362962,140.137444 114,140.16 L119.4,140.16 C119.707726,140.14645 120.008207,140.255847 120.235191,140.464072 C120.462174,140.672296 120.597021,140.962249 120.61,141.27 L120.63,146.49 Z M120.63,133.6 C120.617021,133.907751 120.482174,134.197704 120.255191,134.405928 C120.028207,134.614153 119.727726,134.72355 119.42,134.71 L114,134.71 C113.362962,134.732556 112.827077,134.236862 112.8,133.6 L112.8,128.38 C112.812976,128.0749 112.946769,127.787489 113.171878,127.58114 C113.396987,127.37479 113.694925,127.266447 114,127.28 L119.4,127.28 C120.037145,127.251688 120.57764,127.743048 120.61,128.38 L120.63,133.6 Z M120.63,120.72 C120.59764,121.356952 120.057145,121.848312 119.42,121.82 L114,121.82 C113.694925,121.833553 113.396987,121.72521 113.171878,121.51886 C112.946769,121.312511 112.812976,121.0251 112.8,120.72 L112.8,115.5 C112.827077,114.863138 113.362962,114.367444 114,114.39 L119.4,114.39 C119.707726,114.37645 120.008207,114.485847 120.235191,114.694072 C120.462174,114.902296 120.597021,115.192249 120.61,115.5 L120.63,120.72 Z M120.63,107.83 C120.617021,108.137751 120.482174,108.427704 120.255191,108.635928 C120.028207,108.844153 119.727726,108.95355 119.42,108.94 L114,108.94 C113.362962,108.962556 112.827077,108.466862 112.8,107.83 L112.8,102.62 C112.810382,102.313135 112.943046,102.023163 113.168444,101.814669 C113.393843,101.606176 113.693257,101.496475 114,101.51 L119.4,101.51 C119.707726,101.49645 120.008207,101.605847 120.235191,101.814072 C120.462174,102.022296 120.597021,102.312249 120.61,102.62 L120.63,107.83 Z M120.63,94.95 C120.59764,95.5869523 120.057145,96.0783117 119.42,96.05 L114,96.05 C113.694925,96.063553 113.396987,95.9552102 113.171878,95.7488604 C112.946769,95.5425106 112.812976,95.2550998 112.8,94.95 L112.8,89.73 C112.827077,89.0931378 113.362962,88.5974441 114,88.62 L119.4,88.62 C119.707726,88.6064495 120.008207,88.7158468 120.235191,88.9240715 C120.462174,89.1322962 120.597021,89.422249 120.61,89.73 L120.63,94.95 Z M120.63,82.06 C120.617021,82.367751 120.482174,82.6577038 120.255191,82.8659285 C120.028207,83.0741532 119.727726,83.1835505 119.42,83.17 L114,83.17 C113.362962,83.1925559 112.827077,82.6968622 112.8,82.06 L112.8,76.85 C112.810382,76.5431346 112.943046,76.2531631 113.168444,76.0446694 C113.393843,75.8361756 113.693257,75.7264748 114,75.74 L119.4,75.74 C119.707726,75.7264495 120.008207,75.8358468 120.235191,76.0440715 C120.462174,76.2522962 120.597021,76.542249 120.61,76.85 L120.63,82.06 Z M120.63,69.18 C120.59764,69.8169523 120.057145,70.3083117 119.42,70.28 L114,70.28 C113.694925,70.293553 113.396987,70.1852102 113.171878,69.9788604 C112.946769,69.7725106 112.812976,69.4850998 112.8,69.18 L112.8,64 C112.827077,63.3631378 113.362962,62.8674441 114,62.89 L119.4,62.89 C119.711087,62.8709272 120.016763,62.9778412 120.248145,63.1866499 C120.479528,63.3954586 120.61715,63.6885937 120.63,64 L120.63,69.18 Z M145.84,159.37 C145.812923,160.006862 145.277038,160.502556 144.64,160.48 L124.1,160.48 C123.462962,160.502556 122.927077,160.006862 122.9,159.37 L122.9,154.15 C122.912976,153.8449 123.046769,153.557489 123.271878,153.35114 C123.496987,153.14479 123.794925,153.036447 124.1,153.05 L144.64,153.05 C144.945075,153.036447 145.243013,153.14479 145.468122,153.35114 C145.693231,153.557489 145.827024,153.8449 145.84,154.15 L145.84,159.37 Z M145.84,146.49 C145.827024,146.7951 145.693231,147.082511 145.468122,147.28886 C145.243013,147.49521 144.945075,147.603553 144.64,147.59 L124.1,147.59 C123.794925,147.603553 123.496987,147.49521 123.271878,147.28886 C123.046769,147.082511 122.912976,146.7951 122.9,146.49 L122.9,141.27 C122.927077,140.633138 123.462962,140.137444 124.1,140.16 L144.64,140.16 C145.277038,140.137444 145.812923,140.633138 145.84,141.27 L145.84,146.49 Z M145.84,133.6 C145.812923,134.236862 145.277038,134.732556 144.64,134.71 L124.1,134.71 C123.462962,134.732556 122.927077,134.236862 122.9,133.6 L122.9,128.38 C122.912976,128.0749 123.046769,127.787489 123.271878,127.58114 C123.496987,127.37479 123.794925,127.266447 124.1,127.28 L144.64,127.28 C144.945075,127.266447 145.243013,127.37479 145.468122,127.58114 C145.693231,127.787489 145.827024,128.0749 145.84,128.38 L145.84,133.6 Z M145.84,120.72 C145.827024,121.0251 145.693231,121.312511 145.468122,121.51886 C145.243013,121.72521 144.945075,121.833553 144.64,121.82 L124.1,121.82 C123.794925,121.833553 123.496987,121.72521 123.271878,121.51886 C123.046769,121.312511 122.912976,121.0251 122.9,120.72 L122.9,115.5 C122.927077,114.863138 123.462962,114.367444 124.1,114.39 L144.64,114.39 C145.277038,114.367444 145.812923,114.863138 145.84,115.5 L145.84,120.72 Z M145.84,107.83 C145.812923,108.466862 145.277038,108.962556 144.64,108.94 L124.1,108.94 C123.462962,108.962556 122.927077,108.466862 122.9,107.83 L122.9,102.62 C122.910382,102.313135 123.043046,102.023163 123.268444,101.814669 C123.493843,101.606176 123.793257,101.496475 124.1,101.51 L144.64,101.51 C144.946743,101.496475 145.246157,101.606176 145.471556,101.814669 C145.696954,102.023163 145.829618,102.313135 145.84,102.62 L145.84,107.83 Z M145.84,94.95 C145.827024,95.2550998 145.693231,95.5425106 145.468122,95.7488604 C145.243013,95.9552102 144.945075,96.063553 144.64,96.05 L124.1,96.05 C123.794925,96.063553 123.496987,95.9552102 123.271878,95.7488604 C123.046769,95.5425106 122.912976,95.2550998 122.9,94.95 L122.9,89.73 C122.927077,89.0931378 123.462962,88.5974441 124.1,88.62 L144.64,88.62 C145.277038,88.5974441 145.812923,89.0931378 145.84,89.73 L145.84,94.95 Z M145.84,82.06 C145.812923,82.6968622 145.277038,83.1925559 144.64,83.17 L124.1,83.17 C123.462962,83.1925559 122.927077,82.6968622 122.9,82.06 L122.9,76.85 C122.910382,76.5431346 123.043046,76.2531631 123.268444,76.0446694 C123.493843,75.8361756 123.793257,75.7264748 124.1,75.74 L144.64,75.74 C144.946743,75.7264748 145.246157,75.8361756 145.471556,76.0446694 C145.696954,76.2531631 145.829618,76.5431346 145.84,76.85 L145.84,82.06 Z M145.84,69.18 C145.827024,69.4850998 145.693231,69.7725106 145.468122,69.9788604 C145.243013,70.1852102 144.945075,70.293553 144.64,70.28 L124.1,70.28 C123.794925,70.293553 123.496987,70.1852102 123.271878,69.9788604 C123.046769,69.7725106 122.912976,69.4850998 122.9,69.18 L122.9,64 C122.927077,63.3631378 123.462962,62.8674441 124.1,62.89 L144.64,62.89 C145.277038,62.8674441 145.812923,63.3631378 145.84,64 L145.84,69.18 Z" id="形状" fill="url(#linearGradient-3)" opacity="0.4"></path>
                    <path d="M79.13,26.68 L2.83,26.68 C2.11107868,26.6474596 1.40873717,26.9022097 0.877849576,27.388075 C0.346961984,27.8739403 0.0311306901,28.5510163 0,29.27 L0,201.44 C0.0807837545,202.925448 1.34391551,204.068068 2.83,204 L79.13,204 C80.6234065,204.06208 81.8851039,202.903287 81.95,201.41 L81.95,29.27 C81.8851039,27.7767133 80.6234065,26.6179202 79.13,26.68 Z M72.34,161 C72.3129234,161.636862 71.7770383,162.132556 71.14,162.11 L10.83,162.11 C10.5222736,162.12355 10.2217931,162.014153 9.9948094,161.805928 C9.76782571,161.597704 9.63297872,161.307751 9.62,161 L9.62,155.79 C9.63297872,155.482249 9.76782571,155.192296 9.9948094,154.984072 C10.2217931,154.775847 10.5222736,154.66645 10.83,154.68 L71.14,154.68 C71.446743,154.666475 71.7461572,154.776176 71.9715558,154.984669 C72.1969545,155.193163 72.3296184,155.483135 72.34,155.79 L72.34,161 Z M72.34,146.33 C72.3270237,146.6351 72.193231,146.922511 71.968122,147.12886 C71.7430131,147.33521 71.4450747,147.443553 71.14,147.43 L10.83,147.43 C10.192855,147.458312 9.65235959,146.966952 9.62,146.33 L9.62,141.11 C9.63297872,140.802249 9.76782571,140.512296 9.9948094,140.304072 C10.2217931,140.095847 10.5222736,139.98645 10.83,140 L71.14,140 C71.7770383,139.977444 72.3129234,140.473138 72.34,141.11 L72.34,146.33 Z M72.34,131.65 C72.3129234,132.286862 71.7770383,132.782556 71.14,132.76 L10.83,132.76 C10.5222736,132.77355 10.2217931,132.664153 9.9948094,132.455928 C9.76782571,132.247704 9.63297872,131.957751 9.62,131.65 L9.62,126.43 C9.65235959,125.793048 10.192855,125.301688 10.83,125.33 L71.14,125.33 C71.4450747,125.316447 71.7430131,125.42479 71.968122,125.63114 C72.193231,125.837489 72.3270237,126.1249 72.34,126.43 L72.34,131.65 Z M72.34,116.97 C72.3129234,117.606862 71.7770383,118.102556 71.14,118.08 L10.83,118.08 C10.5222736,118.09355 10.2217931,117.984153 9.9948094,117.775928 C9.76782571,117.567704 9.63297872,117.277751 9.62,116.97 L9.62,111.76 C9.63297872,111.452249 9.76782571,111.162296 9.9948094,110.954072 C10.2217931,110.745847 10.5222736,110.63645 10.83,110.65 L71.14,110.65 C71.446743,110.636475 71.7461572,110.746176 71.9715558,110.954669 C72.1969545,111.163163 72.3296184,111.453135 72.34,111.76 L72.34,116.97 Z M72.34,102.3 C72.3270237,102.6051 72.193231,102.892511 71.968122,103.09886 C71.7430131,103.30521 71.4450747,103.413553 71.14,103.4 L10.83,103.4 C10.192855,103.428312 9.65235959,102.936952 9.62,102.3 L9.62,97 C9.63297872,96.692249 9.76782571,96.4022962 9.9948094,96.1940715 C10.2217931,95.9858468 10.5222736,95.8764495 10.83,95.89 L71.14,95.89 C71.7770383,95.8674441 72.3129234,96.3631378 72.34,97 L72.34,102.3 Z M72.34,87.62 C72.3129234,88.2568622 71.7770383,88.7525559 71.14,88.73 L10.83,88.73 C10.5222736,88.7435505 10.2217931,88.6341532 9.9948094,88.4259285 C9.76782571,88.2177038 9.63297872,87.927751 9.62,87.62 L9.62,82.35 C9.65235959,81.7130477 10.192855,81.2216883 10.83,81.25 L71.14,81.25 C71.4450747,81.236447 71.7430131,81.3447898 71.968122,81.5511396 C72.193231,81.7574894 72.3270237,82.0449002 72.34,82.35 L72.34,87.62 Z M72.34,72.94 C72.3129234,73.5768622 71.7770383,74.0725559 71.14,74.05 L10.83,74.05 C10.5222736,74.0635505 10.2217931,73.9541532 9.9948094,73.7459285 C9.76782571,73.5377038 9.63297872,73.247751 9.62,72.94 L9.62,67.68 C9.63297872,67.372249 9.76782571,67.0822962 9.9948094,66.8740715 C10.2217931,66.6658468 10.5222736,66.5564495 10.83,66.57 L71.14,66.57 C71.446743,66.5564748 71.7461572,66.6661756 71.9715558,66.8746694 C72.1969545,67.0831631 72.3296184,67.3731346 72.34,67.68 L72.34,72.94 Z M72.34,58.27 C72.3270237,58.5750998 72.193231,58.8625106 71.968122,59.0688604 C71.7430131,59.2752102 71.4450747,59.383553 71.14,59.37 L10.83,59.37 C10.192855,59.3983117 9.65235959,58.9069523 9.62,58.27 L9.62,53 C9.63297872,52.692249 9.76782571,52.4022962 9.9948094,52.1940715 C10.2217931,51.9858468 10.5222736,51.8764495 10.83,51.89 L71.14,51.89 C71.7770383,51.8674441 72.3129234,52.3631378 72.34,53 L72.34,58.27 Z M72.34,43.59 C72.3129234,44.2268622 71.7770383,44.7225559 71.14,44.7 L10.83,44.7 C10.5222736,44.7135505 10.2217931,44.6041532 9.9948094,44.3959285 C9.76782571,44.1877038 9.63297872,43.897751 9.62,43.59 L9.62,38.32 C9.65235959,37.6830477 10.192855,37.1916883 10.83,37.22 L71.14,37.22 C71.4450747,37.206447 71.7430131,37.3147898 71.968122,37.5211396 C72.193231,37.7274894 72.3270237,38.0149002 72.34,38.32 L72.34,43.59 Z" id="形状" fill="url(#linearGradient-4)" opacity="0.4"></path>
                    <path d="M224.21,0 L158.82,0 C157.437405,0.0488753885 156.355042,1.20727239 156.4,2.59 L156.4,206.94 C156.375698,207.605809 156.617105,208.253963 157.071033,208.741654 C157.52496,209.229345 158.15416,209.516554 158.82,209.54 L224.21,209.54 C225.592676,209.485799 226.670678,208.32281 226.62,206.94 L226.62,2.59 C226.665041,1.21103088 225.588638,0.0542329223 224.21,0 Z M218.39,134.28 C218.412736,134.858134 217.967678,135.347697 217.39,135.38 L165.67,135.38 C165.092322,135.347697 164.647264,134.858134 164.67,134.28 L164.67,129.06 C164.647087,128.480011 165.090773,127.98752 165.67,127.95 L217.36,127.95 C217.939227,127.98752 218.382913,128.480011 218.36,129.06 L218.39,134.28 Z M218.39,119.6 C218.412913,120.179989 217.969227,120.67248 217.39,120.71 L165.67,120.71 C165.090773,120.67248 164.647087,120.179989 164.67,119.6 L164.67,114.38 C164.647264,113.801866 165.092322,113.312303 165.67,113.28 L217.36,113.28 C217.937678,113.312303 218.382736,113.801866 218.36,114.38 L218.39,119.6 Z M218.39,104.92 C218.412913,105.499989 217.969227,105.99248 217.39,106.03 L165.67,106.03 C165.090773,105.99248 164.647087,105.499989 164.67,104.92 L164.67,99.71 C164.647087,99.1300111 165.090773,98.6375204 165.67,98.6 L217.36,98.6 C217.939227,98.6375204 218.382913,99.1300111 218.36,99.71 L218.39,104.92 Z M218.39,90.25 C218.412736,90.8281337 217.967678,91.317697 217.39,91.35 L165.67,91.35 C165.092322,91.317697 164.647264,90.8281337 164.67,90.25 L164.67,85 C164.647087,84.4200111 165.090773,83.9275204 165.67,83.89 L217.36,83.89 C217.939227,83.9275204 218.382913,84.4200111 218.36,85 L218.39,90.25 Z M218.39,75.57 C218.412913,76.1499889 217.969227,76.6424796 217.39,76.68 L165.67,76.68 C165.090773,76.6424796 164.647087,76.1499889 164.67,75.57 L164.67,70.35 C164.647264,69.7718663 165.092322,69.282303 165.67,69.25 L217.36,69.25 C217.937678,69.282303 218.382736,69.7718663 218.36,70.35 L218.39,75.57 Z M218.39,60.89 C218.412913,61.4699889 217.969227,61.9624796 217.39,62 L165.67,62 C165.090773,61.9624796 164.647087,61.4699889 164.67,60.89 L164.67,55.68 C164.647087,55.1000111 165.090773,54.6075204 165.67,54.57 L217.36,54.57 C217.939227,54.6075204 218.382913,55.1000111 218.36,55.68 L218.39,60.89 Z M218.39,46.22 C218.412736,46.7981337 217.967678,47.287697 217.39,47.32 L165.67,47.32 C165.092322,47.287697 164.647264,46.7981337 164.67,46.22 L164.67,41 C164.647087,40.4200111 165.090773,39.9275204 165.67,39.89 L217.36,39.89 C217.939227,39.9275204 218.382913,40.4200111 218.36,41 L218.39,46.22 Z M218.39,31.54 C218.412913,32.1199889 217.969227,32.6124796 217.39,32.65 L165.67,32.65 C165.090773,32.6124796 164.647087,32.1199889 164.67,31.54 L164.67,26.32 C164.647264,25.7418663 165.092322,25.252303 165.67,25.22 L217.36,25.22 C217.937678,25.252303 218.382736,25.7418663 218.36,26.32 L218.39,31.54 Z M218.39,16.86 C218.412913,17.4399889 217.969227,17.9324796 217.39,17.97 L165.67,17.97 C165.090773,17.9324796 164.647087,17.4399889 164.67,16.86 L164.67,11.65 C164.647087,11.0700111 165.090773,10.5775204 165.67,10.54 L217.36,10.54 C217.939227,10.5775204 218.382913,11.0700111 218.36,11.65 L218.39,16.86 Z" id="形状" fill="url(#linearGradient-5)" opacity="0.4"></path>
                </g>
                <path d="M130.16,83.07 C110.277749,83.07 94.16,99.187749 94.16,119.07 C94.16,138.952251 110.277749,155.07 130.16,155.07 C150.042251,155.07 166.16,138.952251 166.16,119.07 C166.16,99.187749 150.042251,83.07 130.16,83.07 L130.16,83.07 Z M131.68,91.43 C140.475815,91.9100875 148.516512,96.5525221 153.33,103.93 L143.33,109.68 C140.601907,105.835359 136.33356,103.370744 131.64,102.93 L131.68,91.43 Z M128.68,91.43 L128.68,102.93 C123.990046,103.373551 119.725874,105.837863 117,109.68 L107,103.93 C111.814855,96.5588773 119.8492,91.9179665 128.64,91.43 L128.68,91.43 Z M102.53,119.06 C102.531827,114.715241 103.559725,110.432331 105.53,106.56 L115.53,112.31 C113.569675,116.596507 113.569675,121.523493 115.53,125.81 L105.53,131.56 C103.545859,127.691086 102.504213,123.408001 102.49,119.06 L102.53,119.06 Z M128.68,146.69 C119.874815,146.214491 111.823061,141.572105 107,134.19 L117,128.44 C119.728093,132.284641 123.99644,134.749256 128.69,135.19 L128.68,146.69 Z M128.68,126.93 C126.918982,126.589201 125.323584,125.666477 124.15,124.31 C123.484534,123.535241 122.96909,122.643386 122.63,121.68 C122.041746,119.982862 122.041746,118.137138 122.63,116.44 C122.96909,115.476614 123.484534,114.584759 124.15,113.81 C125.325087,112.457226 126.920312,111.538123 128.68,111.2 C129.67053,111.005372 130.68947,111.005372 131.68,111.2 C133.439688,111.538123 135.034913,112.457226 136.21,113.81 C138.828202,116.820358 138.828202,121.299642 136.21,124.31 C135.036416,125.666477 133.441018,126.589201 131.68,126.93 C131.178617,127.022591 130.66986,127.06945 130.16,127.07 C129.650163,127.06896 129.14145,127.022104 128.64,126.93 L128.68,126.93 Z M131.68,146.69 L131.68,135.19 C136.37356,134.749256 140.641907,132.284641 143.37,128.44 L153.37,134.19 C148.548319,141.57848 140.490198,146.222394 131.68,146.69 Z M154.85,131.56 L144.85,125.81 C146.810325,121.523493 146.810325,116.596507 144.85,112.31 L154.85,106.56 C158.822762,114.419848 158.822762,123.700152 154.85,131.56 L154.85,131.56 Z" id="形状" fill="#3BA7F5" fill-rule="nonzero"></path>
                <path d="M99.32,151.4 C100.69372,152.704786 102.146468,153.923758 103.67,155.05 L109.26,148.39 C107.716222,147.286015 106.261731,146.062237 104.91,144.73 L99.32,151.4 Z" id="路径" fill="#3BA7F5" fill-rule="nonzero"></path>
                <path d="M112.24,160 C113.978175,160.756459 115.761599,161.404369 117.58,161.94 L120.58,153.76 C118.750368,153.259112 116.964486,152.610309 115.24,151.82 L112.24,160 Z" id="路径" fill="#3BA7F5" fill-rule="nonzero"></path>
                <path d="M94.31,122.5 L85.75,124 C85.9653966,125.885815 86.2993915,127.756187 86.75,129.6 L95.31,128.09 C94.8292981,126.256058 94.4949148,124.386856 94.31,122.5 Z" id="路径" fill="#3BA7F5" fill-rule="nonzero"></path>
                <path d="M100.49,98.65 L93,94.3 C91.9478683,95.8786755 90.9959921,97.5219143 90.15,99.22 L97.68,103.57 C98.4912207,101.861467 99.4305693,100.216771 100.49,98.65 L100.49,98.65 Z" id="路径" fill="#3BA7F5" fill-rule="nonzero"></path>
                <path d="M127.32,155 L127.32,163.7 C128.26,163.76 129.21,163.79 130.16,163.79 C131.11,163.79 132.06,163.79 133,163.7 L133,155 C132.07,155.08 131.12,155.11 130.16,155.11 C129.2,155.11 128.26,155 127.32,155 Z" id="路径" fill="#3BA7F5" fill-rule="nonzero"></path>
                <path d="M95.29,110 L86.73,108.49 C86.2777081,110.333457 85.943694,112.203936 85.73,114.09 L94.29,115.6 C94.472655,113.709542 94.8070665,111.836837 95.29,110 L95.29,110 Z" id="路径" fill="#3BA7F5" fill-rule="nonzero"></path>
                <path d="M166,115.63 L174.57,114.12 C174.356306,112.233936 174.022292,110.363457 173.57,108.52 L165,110 C165.484518,111.84665 165.818941,113.72945 166,115.63 Z" id="路径" fill="#3BA7F5" fill-rule="nonzero"></path>
                <path d="M139.77,153.77 L142.77,161.95 C144.587863,161.412734 146.371188,160.76486 148.11,160.01 L145.11,151.83 C143.38609,152.621712 141.600091,153.270558 139.77,153.77 L139.77,153.77 Z" id="路径" fill="#3BA7F5" fill-rule="nonzero"></path>
                <path d="M165,128.1 L173.57,129.61 C174.020609,127.766187 174.354603,125.895815 174.57,124.01 L166,122.5 C165.815609,124.390219 165.481222,126.262786 165,128.1 Z" id="路径" fill="#3BA7F5" fill-rule="nonzero"></path>
                <path d="M159.83,139.47 L167.37,143.82 C168.421,142.242479 169.369618,140.599098 170.21,138.9 L162.68,134.55 C161.865792,136.264993 160.912611,137.910484 159.83,139.47 Z" id="路径" fill="#3BA7F5" fill-rule="nonzero"></path>
                <path d="M151.06,148.39 L156.65,155.05 C158.173532,153.923758 159.62628,152.704786 161,151.4 L155.41,144.73 C154.060434,146.064612 152.605747,147.288555 151.06,148.39 Z" id="路径" fill="#3BA7F5" fill-rule="nonzero"></path>
                <path d="M97.64,134.55 L90.11,138.9 C90.9537865,140.599271 91.9057424,142.242648 92.96,143.82 L100.49,139.47 C99.4147053,137.905848 98.4618697,136.260953 97.64,134.55 L97.64,134.55 Z" id="路径" fill="#3BA7F5" fill-rule="nonzero"></path>
                <path d="M148.09,78.12 C146.354328,77.3404881 144.570708,76.6724656 142.75,76.12 L139.75,84.3 C141.578673,84.803897 143.364317,85.452614 145.09,86.24 L148.09,78.12 Z" id="路径" fill="#3BA7F5" fill-rule="nonzero"></path>
                <path d="M109.26,89.73 L103.67,83.07 C102.143961,84.1966568 100.691036,85.4191185 99.32,86.73 L104.91,93.39 C106.26431,92.0605972 107.718573,90.8370098 109.26,89.73 L109.26,89.73 Z" id="路径" fill="#3BA7F5" fill-rule="nonzero"></path>
                <path d="M161,86.73 C159.628964,85.4191185 158.176039,84.1966568 156.65,83.07 L151.06,89.73 C152.603424,90.8344406 154.05788,92.0581903 155.41,93.39 L161,86.73 Z" id="路径" fill="#3BA7F5" fill-rule="nonzero"></path>
                <path d="M162.68,103.57 L170.21,99.22 C169.367431,97.5220738 168.418892,95.8788292 167.37,94.3 L159.83,98.65 C160.910492,100.210861 161.863571,101.856176 162.68,103.57 L162.68,103.57 Z" id="路径" fill="#3BA7F5" fill-rule="nonzero"></path>
                <path d="M120.55,84.35 L117.55,76.17 C115.728745,76.7208482 113.945022,77.3889091 112.21,78.17 L115.21,86.34 C116.934845,85.5371421 118.720394,84.8717406 120.55,84.35 L120.55,84.35 Z" id="路径" fill="#3BA7F5" fill-rule="nonzero"></path>
                <path d="M133,83.16 L133,74.46 C132.06,74.46 131.12,74.38 130.16,74.38 C129.2,74.38 128.26,74.38 127.32,74.46 L127.32,83.16 C128.26,83.09 129.21,83.05 130.16,83.05 C131.11,83.05 132.07,83.09 133,83.16 Z" id="路径" fill="#3BA7F5" fill-rule="nonzero"></path>
                <path d="M262,95.08 C262,94.3 262,93.52 261.93,92.75 L275.11,90.08 C274.845447,87.2755344 274.357227,84.4966914 273.65,81.77 L260.35,83.77 C259.908423,82.2761356 259.377466,80.8101596 258.76,79.38 L270.23,72.38 C269.019679,69.8331218 267.605054,67.3884619 266,65.07 L254.19,71.49 C253.261451,70.2417421 252.259693,69.0496495 251.19,67.92 L259.57,57.4 C257.569291,55.4327721 255.415889,53.6271243 253.13,52 L244.23,62.07 C242.942365,61.2174085 241.606833,60.4394613 240.23,59.74 L244.46,47 C241.902725,45.8235216 239.253991,44.8570015 236.54,44.11 L231.62,56.6 C230.107703,56.2378367 228.574912,55.9673442 227.03,55.79 L226.68,42.35 C225.29,42.24 223.88,42.19 222.47,42.19 C221.06,42.19 219.64,42.24 218.25,42.35 L217.9,55.79 C216.355088,55.9673442 214.822297,56.2378367 213.31,56.6 L208.39,44.08 C205.675637,44.8383496 203.027012,45.8148626 200.47,47 L204.74,59.75 C203.363167,60.4494613 202.027635,61.2274085 200.74,62.08 L191.8,52 C189.506468,53.6326596 187.346333,55.4450332 185.34,57.42 L193.72,67.94 C192.650307,69.0696495 191.648549,70.2617421 190.72,71.51 L178.91,65.09 C177.305881,67.4020573 175.891275,69.8399959 174.68,72.38 L186.15,79.38 C185.532534,80.8101596 185.001577,82.2761356 184.56,83.77 L171.26,81.77 C170.552773,84.4966914 170.064553,87.2755344 169.8,90.08 L183,92.75 C183,93.52 182.93,94.3 182.93,95.08 C182.93,95.86 182.93,96.64 183,97.41 L169.82,100.09 C170.08453,102.891177 170.572755,105.666699 171.28,108.39 L184.58,106.39 C185.02159,107.880596 185.552551,109.343244 186.17,110.77 L174.7,117.77 C175.913472,120.312032 177.327966,122.753121 178.93,125.07 L190.74,118.65 C191.668549,119.898258 192.670307,121.090351 193.74,122.22 L185.36,132.73 C187.36618,134.708172 189.526305,136.523881 191.82,138.16 L200.72,128.08 C202.005227,128.939467 203.340971,129.720877 204.72,130.42 L200.45,143.17 C203.008181,144.341603 205.656788,145.304733 208.37,146.05 L213.29,133.54 C214.803486,133.894009 216.335992,134.161112 217.88,134.34 L218.23,147.78 C219.62,147.89 221.03,147.95 222.45,147.95 C223.87,147.95 225.27,147.89 226.66,147.78 L227.01,134.34 C228.554008,134.161112 230.086514,133.894009 231.6,133.54 L236.52,146.05 C239.233732,145.306364 241.882468,144.343187 244.44,143.17 L240.17,130.42 C241.549029,129.720877 242.884773,128.939467 244.17,128.08 L253.07,138.16 C255.363695,136.523881 257.52382,134.708172 259.53,132.73 L251.15,122.22 C252.219693,121.090351 253.221451,119.898258 254.15,118.65 L266,125.1 C267.602034,122.783121 269.016528,120.342032 270.23,117.8 L258.76,110.8 C259.377449,109.373244 259.90841,107.910596 260.35,106.42 L273.65,108.42 C274.357245,105.696699 274.84547,102.921177 275.11,100.12 L262,97.41 C262,96.64 262,95.86 262,95.08 Z M222.47,109 C214.782196,109 208.55,102.767804 208.55,95.08 C208.55,87.3921963 214.782196,81.16 222.47,81.16 C230.157804,81.16 236.39,87.3921963 236.39,95.08 C236.39,102.767804 230.157804,109 222.47,109 L222.47,109 Z" id="形状" fill="#53BEF5" fill-rule="nonzero"></path>
                <path d="M202.6,166.39 L199.93,164.83 C199.155099,164.381266 198.807063,163.446181 199.1,162.6 C199.327639,161.94549 199.514661,161.277554 199.66,160.6 C199.841786,159.714094 200.625679,159.081111 201.53,159.09 L204.61,159.09 C204.61,158.67 204.67,158.24 204.68,157.82 L204.68,157.09 C204.68,156.65 204.68,156.21 204.62,155.78 L201.52,155.78 C200.626234,155.772763 199.861123,155.137261 199.69,154.26 C199.550035,153.560172 199.369734,152.869019 199.15,152.19 C198.8618,151.341865 199.219062,150.408781 200,149.97 L202.69,148.43 C202.51,148.04 202.31,147.64 202.1,147.26 L201.74,146.63 C201.52,146.26 201.29,145.9 201.06,145.55 L198.39,147 C197.602339,147.44036 196.613952,147.269373 196.02,146.59 C195.550567,146.057197 195.049672,145.552963 194.52,145.08 C193.853719,144.484216 193.699024,143.501692 194.15,142.73 L195.71,140.06 C195.26,139.75 194.8,139.45 194.31,139.17 C193.82,138.89 193.31,138.62 192.85,138.38 L191.29,141.05 C190.840367,141.829674 189.899113,142.178442 189.05,141.88 C188.395981,141.650799 187.727945,141.463749 187.05,141.32 C186.162281,141.138804 185.526002,140.356014 185.53,139.45 L185.53,136.37 C185.11,136.37 184.68,136.31 184.26,136.3 L183.53,136.3 C183.09,136.3 182.65,136.3 182.21,136.35 L182.21,139.45 C182.202763,140.343766 181.567261,141.108877 180.69,141.28 C179.988892,141.418636 179.297457,141.602351 178.62,141.83 C177.769636,142.108096 176.841095,141.748391 176.4,140.97 L174.86,138.28 C174.46,138.46 174.07,138.66 173.69,138.87 L173.06,139.23 C172.686667,139.45 172.326667,139.68 171.98,139.92 L173.5,142.6 C173.946765,143.384685 173.779553,144.375411 173.1,144.97 C172.564905,145.433414 172.060507,145.931131 171.59,146.46 C170.994216,147.126281 170.011692,147.280976 169.24,146.83 L166.57,145.27 C166.25,145.72 165.96,146.19 165.67,146.67 L165.67,146.67 C165.39,147.15 165.13,147.67 164.89,148.13 L167.56,149.69 C168.339674,150.139633 168.688442,151.080887 168.39,151.93 C168.159102,152.600475 167.972041,153.285252 167.83,153.98 C167.641184,154.861605 166.861597,155.491111 165.96,155.49 L162.88,155.49 C162.88,155.92 162.82,156.34 162.81,156.76 L162.81,157.49 C162.81,157.93 162.83,158.37 162.87,158.81 L165.97,158.81 C166.86519,158.81333 167.632456,159.450622 167.8,160.33 C167.938725,161.026829 168.119048,161.714726 168.34,162.39 C168.625267,163.240933 168.269293,164.174841 167.49,164.62 L164.8,166.15 C164.98,166.55 165.18,166.94 165.39,167.33 L165.75,167.96 C165.97,168.32 166.2,168.68 166.43,169.03 L169.11,167.51 C169.893956,167.059146 170.887442,167.226823 171.48,167.91 C171.946859,168.445205 172.447909,168.949595 172.98,169.42 C173.646281,170.015784 173.800976,170.998308 173.35,171.77 L171.79,174.44 C172.24,174.76 172.7,175.06 173.19,175.34 C173.68,175.62 174.19,175.88 174.65,176.12 L176.21,173.45 C176.66501,172.676722 177.600975,172.329913 178.45,172.62 C179.102995,172.852439 179.771248,173.03955 180.45,173.18 C181.33558,173.364717 181.970114,174.145361 181.97,175.05 L181.97,178.14 C182.39,178.14 182.82,178.2 183.24,178.21 L184,178.21 C184.44,178.21 184.88,178.21 185.32,178.15 L185.32,175.06 C185.322488,174.162466 185.959071,173.391865 186.84,173.22 C187.540911,173.084776 188.232352,172.9044 188.91,172.68 C189.760748,172.402925 190.689526,172.756944 191.14,173.53 L192.67,176.23 C193.07,176.043333 193.46,175.843333 193.84,175.63 L194.47,175.27 C194.84,175.05 195.2,174.83 195.55,174.59 L194,171.93 C193.549146,171.146044 193.716823,170.152558 194.4,169.56 C194.937631,169.095754 195.442192,168.594535 195.91,168.06 C196.505784,167.393719 197.488308,167.239024 198.26,167.69 L200.93,169.26 C201.25,168.8 201.54,168.34 201.83,167.86 L201.83,167.86 C202.1,167.37 202.36,166.89 202.6,166.39 Z M188,150.18 C187.484772,149.913545 187.187217,149.356963 187.251823,148.780522 C187.31643,148.204081 187.729815,147.727179 188.291246,147.581393 C188.852677,147.435607 189.445864,147.651134 189.782764,148.123316 C190.119665,148.595498 190.130497,149.226533 189.81,149.71 C189.41509,150.305719 188.634854,150.508321 188,150.18 L188,150.18 Z M185,157.91 C184.736095,158.42787 184.179652,158.728812 183.601799,158.666193 C183.023946,158.603574 182.544887,158.19042 182.398043,157.628039 C182.251199,157.065658 182.467117,156.471037 182.940591,156.133905 C183.414064,155.796773 184.046602,155.787259 184.53,156.11 C185.120298,156.504112 185.322266,157.277607 185,157.91 L185,157.91 Z M173.46,158.5 C172.944001,158.235724 172.644266,157.680756 172.70621,157.104336 C172.768154,156.527917 173.178961,156.049305 173.739329,155.900699 C174.299698,155.752093 174.893689,155.964239 175.23313,156.434214 C175.57257,156.904189 175.587231,157.534757 175.27,158.02 C174.876078,158.635887 174.074581,158.844973 173.43,158.5 L173.46,158.5 Z M176.56,153.06 C174.27108,151.714798 173.504929,148.76945 174.848246,146.479423 C176.191562,144.189396 179.136279,143.42082 181.427411,144.762251 C183.718544,146.103681 184.489543,149.047764 183.15,151.34 C181.784997,153.627209 178.835727,154.393484 176.53,153.06 L176.56,153.06 Z M176.47,169.83 C174.783741,168.847734 173.856164,166.945611 174.12054,165.012112 C174.384917,163.078612 175.789071,161.495318 177.677123,161.001784 C179.565175,160.508251 181.564513,161.201879 182.741246,162.758675 C183.917979,164.315471 184.039877,166.428197 183.05,168.11 C182.403358,169.216599 181.342607,170.020086 180.102231,170.342846 C178.861855,170.665607 177.544006,170.48106 176.44,169.83 L176.47,169.83 Z M187.93,167 C187.418967,166.735436 187.123795,166.183333 187.187626,165.611429 C187.251457,165.039525 187.661091,164.566085 188.217878,164.420702 C188.774665,164.275319 189.363467,164.488056 189.698748,164.955747 C190.034028,165.423438 190.046454,166.04937 189.73,166.53 C189.338724,167.124268 188.56186,167.327116 187.93,167 L187.93,167 Z M191.05,161.53 C188.753576,160.187127 187.979293,157.237688 189.32,154.94 C190.683959,152.671537 193.607678,151.904005 195.91,153.21 C198.117443,154.592048 198.827802,157.477668 197.514179,159.726504 C196.200557,161.975339 193.338107,162.773958 191.05,161.53 L191.05,161.53 Z" id="形状" fill="#2D8CE9" fill-rule="nonzero" opacity="0.547619048"></path>
                <polygon id="路径" fill="#7798B9" fill-rule="nonzero" points="265.66 225.37 266.65 228.74 249.95 229.82 249.09 226.6"></polygon>
                <polygon id="路径" fill="#7798B9" fill-rule="nonzero" points="260.14 206.61 261.2 210.22 244.71 210.22 243.74 206.61"></polygon>
                <polygon id="路径" fill="#7798B9" fill-rule="nonzero" points="255.26 190 256.06 192.72 239.68 191.39 238.93 188.6"></polygon>
                <polygon id="路径" fill="#7798B9" fill-rule="nonzero" points="250.44 173.61 251.26 176.4 235.02 173.99 234.26 171.13"></polygon>
                <polygon id="路径" fill="#7798B9" fill-rule="nonzero" points="246.11 158.87 247.01 161.93 230.85 158.4 230.21 156"></polygon>
                <polygon id="路径" fill="#7798B9" fill-rule="nonzero" points="242.05 145.06 242.98 148.25 227.06 144.21 226.46 141.99"></polygon>
                <polygon id="路径" fill="#728CB9" fill-rule="nonzero" points="237.44 120.62 272.45 235.84 268.74 235.84 266.65 228.74 265.66 225.37 261.2 210.22 260.14 206.61 256.06 192.72 255.26 190 251.26 176.4 250.44 173.61 247.01 161.93 246.11 158.87 242.98 148.25 242.05 145.06 239.04 134.82 238.46 132.84 234.86 120.62"></polygon>
                <polygon id="路径" fill="#7798B9" fill-rule="nonzero" points="238.46 132.84 239.04 134.82 223.5 130.9 223.5 130.9 222.85 128.48"></polygon>
                <polygon id="路径" fill="#A4C0D9" fill-rule="nonzero" points="244.71 210.22 249.09 226.6 249.95 229.82 251.56 235.84 247.85 235.84 218.17 120.62 220.75 120.62 222.85 128.48 223.5 130.9 223.5 130.9 226.46 141.99 227.06 144.21 230.21 156 230.85 158.4 234.26 171.13 235.02 173.99 238.93 188.6 239.68 191.39 243.74 206.61"></polygon>
                <path d="M268.9,225.09 C269.27,225.65 270,227.04 269.65,228.03 L269.65,228.03 C269.495841,228.440419 269.165408,228.759838 268.75,228.9 C266.91,229.63 265.6,230.06 264.94,228.73 C264.560282,227.733859 263.831822,226.909454 262.89,226.41 C261.89,225.78 259.05,226.2 258.76,225.87 C258.432701,225.481342 258.280691,224.97464 258.34,224.47 C258.367606,224.119099 258.46989,223.77815 258.64,223.47 C259.27,222.25 260.12,221.47 260.78,221.38 C261.301995,221.382828 261.817168,221.498827 262.29,221.72 L262.48,222.36 L262.78,222.29 C262.94,222.48 263.31,222.5 263.48,223.12 C263.65,223.74 264.39,224.12 264.73,223.76 C265.07,223.4 264.79,222.97 265.11,222.87 C265.43,222.77 266.21,222.73 266.99,222.67 L268.12,222.59 C268.26104,223.455891 268.523632,224.297531 268.9,225.09 L268.9,225.09 Z" id="路径" fill="#FFB056" fill-rule="nonzero"></path>
                <path d="M264.94,228.74 C265.6,230.07 266.94,229.64 268.75,228.91 C269.165408,228.769838 269.495841,228.450419 269.65,228.04 C269.55,228.7 269.39,229.24 268.83,229.49 C267.66913,229.913103 266.418137,230.02683 265.2,229.82 C264.38,229.48 263.96,228.64 263.26,227.76 C262.656063,227.053966 261.825185,226.580189 260.91,226.42 C260.49,226.42 258.73,226.66 258.19,226.33 C257.65,226 258.19,225.07 258.33,224.48 L258.33,224.48 C258.270691,224.98464 258.422701,225.491342 258.75,225.88 C259.04,226.21 261.86,225.79 262.88,226.42 C263.825584,226.917555 264.557806,227.742193 264.94,228.74 Z" id="路径" fill="#EBFCFF" fill-rule="nonzero"></path>
                <path d="M251.09,210.39 C250.184804,210.588005 249.247232,210.240323 248.69,209.5 C248.16,209.02 246.74,206.72 246.12,206.5 C245.5,206.28 245.52,206.5 244.82,206.64 C244.12,206.78 244.4,206.27 244.39,205.64 C244.384752,205.739931 244.384752,205.840069 244.39,205.94 C244.48,206.23 244.77,206.43 245.39,205.94 C246.01,205.45 246.3,205.36 246.82,205.81 C247.34,206.26 249.08,209.22 249.96,209.75 C250.84,210.28 251.86,209.75 253.05,208.98 C253.8,208.46 253.99,207.98 253.95,207.49 C254.078004,208.059658 254.007436,208.655956 253.75,209.18 C252.962492,209.77301 252.054486,210.18605 251.09,210.39 L251.09,210.39 Z" id="路径" fill="#EBFCFF" fill-rule="nonzero"></path>
                <path d="M245.38,205.9 C244.8,206.44 244.51,206.24 244.38,205.9 C244.374752,205.800069 244.374752,205.699931 244.38,205.6 C244.33,204.75 244.51,202.53 246.66,202.6 L247.66,204.75 L248.39,204.41 L248.67,205.02 C249.102192,204.718838 249.66749,204.687862 250.13,204.94 C250.13,204.39 250,203.94 249.99,203.65 C249.968357,203.510084 250.000514,203.367162 250.08,203.25 C250.472444,202.940318 250.902533,202.681592 251.36,202.48 L251.36,202.48 C251.580405,202.353462 251.826511,202.278263 252.08,202.26 C252.45,202.85 252.42,204.04 252.82,204.26 C253.22,204.48 253.42,205.47 253.69,206.41 C253.79259,206.71173 253.862982,207.023464 253.9,207.34 L253.9,207.34 C253.9,207.85 253.75,208.34 253,208.83 C251.81,209.64 250.8,210.14 249.91,209.6 C249.02,209.06 247.29,206.1 246.77,205.66 C246.25,205.22 246,205.36 245.38,205.9 Z" id="路径" fill="#FFB056" fill-rule="nonzero"></path>
                <polygon id="路径" fill="#257FBA" fill-rule="nonzero" points="262.29 221.75 256.06 200.32 254.74 184.01 262.52 180.55 262.21 200.32 266.65 221.5 262.78 222.32 262.48 222.39"></polygon>
                <path d="M262,175 L262.52,180.55 C262.618173,181.564586 261.937601,182.49068 260.94,182.7 L254.74,184.01 L245.69,185.92 L251.4,202.57 L251.4,202.57 C250.942533,202.771592 250.512444,203.030318 250.12,203.34 C250.040514,203.457162 250.008357,203.600084 250.03,203.74 L248.43,204.5 L247.7,204.84 L246.7,202.69 L237.84,184.2 C237.616201,183.787304 237.571919,183.300747 237.71754,182.85443 C237.86316,182.408113 238.185873,182.041296 238.61,181.84 L252.43,175.19 L252.54,174.19 C254.05,175 256.88,175.74 262,175 Z" id="路径" fill="#398EED" fill-rule="nonzero"></path>
                <path d="M257.63,148 C258.91,147.84 261.13,150.18 260.97,153.77 L260.97,153.77 C260.171023,151.681082 259.043483,149.733207 257.63,148 Z" id="路径" fill="#E49056" fill-rule="nonzero"></path>
                <path d="M256.21,151.24 C259.21,156.19 256.03,156.55 254.15,157.16 C252.799975,157.389689 251.437632,157.539947 250.07,157.61 L247.9,157.76 L247.48,155.31 L246.63,150.43 C248.214324,150.079454 249.828086,149.878571 251.45,149.83 C253.39,149.79 255.37,150.08 256.21,151.24 Z" id="路径" fill="#FFBF76" fill-rule="nonzero"></path>
                <path d="M256.21,151.24 C255.37,150.08 253.39,149.79 251.45,149.83 L251.58,149.41 L251.58,149.41 C253.464795,149.707019 255.380278,149.107968 256.76,147.79 L257.15,147.44 C257.15,147.44 257.32,147.63 257.61,147.99 C259.023483,149.723207 260.151023,151.671082 260.95,153.76 C261.320388,154.767323 261.572087,155.81439 261.7,156.88 C262.494354,162.845486 262.828674,168.863235 262.7,174.88 L262,175 C256.88,175.74 254.05,175 252.51,174.15 C251.732862,173.781258 251.109938,173.151255 250.75,172.37 L250.62,169.43 L250.31,162.85 L250.07,157.68 L250.07,157.61 C251.437632,157.539947 252.799975,157.389689 254.15,157.16 C256,156.55 259.23,156.19 256.21,151.24 Z" id="路径" fill="#FFB056" fill-rule="nonzero"></path>
                <path d="M267,222.7 L267,222.7 C266.22,222.76 265.32,222.85 265.12,222.9 C264.92,222.95 264.97,223.39 264.74,223.79 C264.51,224.19 263.66,223.79 263.49,223.15 C263.32,222.51 262.95,222.51 262.79,222.32 L266.66,221.5 L267,222.7 Z" id="路径" fill="#F0DABC" fill-rule="nonzero"></path>
                <path d="M248.43,204.5 L250.03,203.74 C250.03,204.05 250.16,204.48 250.17,205.03 C249.70749,204.777862 249.142192,204.808838 248.71,205.11 L248.43,204.5 Z" id="路径" fill="#F0DABC" fill-rule="nonzero"></path>
                <path d="M246.63,150.43 L247.48,155.31 L240.57,153.79 L231.11,144 C230.55,142.9 228.63,142.2 227.7,142 C227.22,138.63 232.31,139.41 232.8,139.68 C233.29,139.95 232.9,141.41 232.91,142 L241.71,150.1 L246.63,150.43 Z" id="路径" fill="#FFEED2" fill-rule="nonzero"></path>
                <path d="M250.31,162.85 L250.62,169.43 C250.62,169.43 245.62,161.88 245.24,161.43 C244.62,161.64 243.99,161.28 243.07,160.84 C242.15,160.4 241.37,160.53 241.37,159.64 C241.37,159.17 242.24,159.31 242.75,159.54 C242.337863,158.906429 241.816424,158.351131 241.21,157.9 C241.45,156.41 244.65,155.9 245.98,156.66 C246.019657,157.702302 246.278622,158.724534 246.74,159.66 C246.87,160.2 250.31,162.85 250.31,162.85 Z" id="路径" fill="#FAE6D2" fill-rule="nonzero"></path>
                <path d="M255.34,144.67 C255.440633,145.682752 255.825419,146.64645 256.45,147.45 L256.78,147.8 C255.400278,149.117968 253.484795,149.717019 251.6,149.42 L251.6,149.42 L252.03,148.16 C252.43,147.99 251.9,146.8 251.58,146.33 C251.74,146.33 251.9,146.33 252.06,146.27 C253.226318,146.120788 254.295546,145.543405 255.06,144.65 L255.34,144.67 Z" id="路径" fill="#FFEED2" fill-rule="nonzero"></path>
                <path d="M252,146.26 C251.84,146.26 251.68,146.31 251.52,146.32 C251.056649,146.379729 250.586481,146.359434 250.13,146.26 C248.968588,145.931052 248.11745,144.938058 247.97,143.74 C247.63,143.25 246.97,143.54 246.97,142.81 C247.03,141.92 248.1,141.58 248.25,139.93 C248.626566,138.093429 250.17989,136.732227 252.05,136.6 C254.26,136.6 256.05,138.81 256.05,141.54 C256.196782,143.930971 254.432665,146.012628 252.05,146.26 L252,146.26 Z" id="路径" fill="#FFEED2" fill-rule="nonzero"></path>
                <path d="M244.39,205.65 C244.39,206.29 244.12,206.79 244.82,206.65 C245.52,206.51 245.51,206.3 246.12,206.51 C246.73,206.72 248.12,209.01 248.69,209.51 C249.247232,210.250323 250.184804,210.598005 251.09,210.4 C252.054309,210.182699 252.959017,209.75595 253.74,209.15 C253.997436,208.625956 254.068004,208.029658 253.94,207.46 L253.94,207.46" id="路径" stroke="#4986D9" stroke-width="0.12"></path>
                <path d="M258.33,224.48 C258.2,225.07 257.65,226 258.19,226.33 C258.73,226.66 260.49,226.33 260.91,226.42 C261.825185,226.580189 262.656063,227.053966 263.26,227.76 C263.96,228.64 264.38,229.48 265.2,229.82 C266.418137,230.02683 267.66913,229.913103 268.83,229.49 C269.39,229.24 269.55,228.7 269.65,228.04 L269.65,228.04" id="路径" stroke="#4986D9" stroke-width="0.12"></path>
                <path d="M247.9,138.55 C247.82,139.04 247.69,139.76 248.24,139.96 C249.24,140.42 250.03,139.54 250.55,139.75 C251.07,139.96 251.55,139.99 251.55,140.47 C251.55,140.95 252.39,141.55 252.37,141.78 C252.307258,142.052722 252.361664,142.339255 252.52,142.57 C252.8,143.1 253.28,142.87 253.69,143.3 C254.1,143.73 253.92,144.03 254.16,144.11 C254.4,144.19 254.82,144.11 254.94,144.21 C255.06,144.31 255.03,144.85 255.6,144.7 C256.17,144.55 256.24,144.06 256.32,143.56 C256.4,143.06 257.32,142.66 257.64,142.33 C257.96,142 259.69,140.58 258.47,137.44 C257.570927,135.025045 254.888775,133.791255 252.47,134.68 C251.60881,134.074062 250.49298,133.963998 249.53,134.39 C248.15,135.31 248.66,136.5 248.14,136.94 C247.62,137.38 247.45,137.19 246.99,137.03 C246.53,136.87 246.2,136.93 246.11,137.19 C245.904973,137.595777 245.999467,138.088788 246.34,138.39 C246.761046,138.796347 247.405234,138.862417 247.9,138.55 L247.9,138.55 Z" id="路径" fill="#000000" fill-rule="nonzero"></path>
                <ellipse id="椭圆形" fill="#FFEED2" fill-rule="nonzero" transform="translate(252.471676, 141.336908) rotate(-82.770000) translate(-252.471676, -141.336908) " cx="252.471676" cy="141.336908" rx="1.37" ry="1"></ellipse>
                <ellipse id="椭圆形" fill="#FFEED2" fill-rule="nonzero" transform="translate(252.464631, 141.443670) rotate(-12.470000) translate(-252.464631, -141.443670) " cx="252.464631" cy="141.44367" rx="1" ry="1.17"></ellipse>
                <ellipse id="椭圆形" fill="#E55C5C" fill-rule="nonzero" opacity="0.2" transform="translate(252.464631, 141.443670) rotate(-12.470000) translate(-252.464631, -141.443670) " cx="252.464631" cy="141.44367" rx="1" ry="1"></ellipse>
                <path d="M257.17,147.45 C256.930434,147.429586 256.689566,147.429586 256.45,147.45 L256.78,147.8 L257.17,147.45 Z" id="路径" fill="#E49056" fill-rule="nonzero"></path>
            </g>
        </g>
    </g>
</svg>