<?xml version="1.0" encoding="UTF-8"?>
<svg width="288px" height="36px" viewBox="0 0 288 36" version="1.1" xmlns="http://www.w3.org/2000/svg" xmlns:xlink="http://www.w3.org/1999/xlink">
    <title>编组 13</title>
    <g id="one-hr-手机端" stroke="none" stroke-width="1" fill="none" fill-rule="evenodd">
        <g id="onehr-手机端" transform="translate(-230.000000, -1341.000000)">
            <g id="编组-13" transform="translate(230.493903, 1341.348000)">
                <path d="M76.5359174,34.96 L78.113984,24.814 L80.431984,24.814 L79.6872784,29.602 L78.5092784,29.602 L77.6759174,34.96 L85.0479174,34.96 L90.4322572,0.342 L75.7262572,0.342 L70.3419174,34.96 L76.5359174,34.96 Z M92.8379174,34.96 L97.3297925,6.08 L103.181792,6.08 L102.519832,10.336 L99.4038319,10.336 L98.5054569,16.112 L107.777457,16.112 L110.230257,0.342 L92.0282572,0.342 L86.6439174,34.96 L92.8379174,34.96 Z M82.7724874,9.766 L80.4544874,9.766 L81.0573443,5.89 L83.3753443,5.89 L82.7724874,9.766 Z M81.3008072,19.228 L78.9828072,19.228 L79.5915745,15.314 L81.9095745,15.314 L81.3008072,19.228 Z M97.2079174,34.96 L99.5824495,32.642 L100.855917,34.96 L104.845917,34.96 L105.679278,29.602 L104.121278,29.602 L103.523396,28.804 L106.11157,26.334 L107.482774,17.518 L104.822774,17.518 L104.828684,17.48 L96.2786839,17.48 L95.4394125,22.876 L101.671412,22.876 L101.417267,24.51 L100.796611,25.08 L100.21055,24.206 L95.0045498,24.206 L97.2483204,28.348 L95.9132784,29.602 L94.2792784,29.602 L93.4459174,34.96 L97.2079174,34.96 Z M121.987855,20.52 L127.75367,17.898 L132.475855,20.52 L144.331855,20.52 L145.135664,15.352 L137.953664,15.352 L135.371334,14.364 L145.560308,9.69 L146.807394,1.672 L123.209394,1.672 L123.96345,2.27373675e-13 L117.12345,2.27373675e-13 L113.801557,7.676 L120.565557,7.676 L121.029137,6.65 L140.295137,6.65 L140.253765,6.916 L127.948611,11.514 L123.610667,9.842 L113.426667,9.842 L121.010706,14.098 L117.623664,15.352 L111.695664,15.352 L110.891855,20.52 L121.987855,20.52 Z M115.705469,34.77 L119.919962,28.196 L136.943962,28.196 L136.683906,29.868 L125.435906,29.868 L124.673469,34.77 L142.115469,34.77 L143.900399,23.294 L123.038399,23.294 L124.283917,21.394 L117.253917,21.394 L116.008399,23.294 L110.460399,23.294 L109.697962,28.196 L112.889962,28.196 L108.675469,34.77 L115.705469,34.77 Z M153.322097,35.036 L164.216672,12.388 L169.042672,12.388 L171.731828,34.922 L178.761828,34.922 L176.034672,12.388 L183.672672,12.388 L184.565137,6.65 L166.971137,6.65 L170.048168,0.304 L163.284168,0.304 L160.207137,6.65 L150.403137,6.65 L149.510672,12.388 L157.452672,12.388 L146.558097,35.036 L153.322097,35.036 Z M193.187469,34.77 L197.679344,5.89 L223.063344,5.89 L223.961719,0.114 L192.383719,0.114 L187.885934,29.032 L185.833934,29.032 L184.941469,34.77 L193.187469,34.77 Z M212.38338,34.732 L215.297188,15.998 L221.415188,15.998 L222.307653,10.26 L198.595653,10.26 L197.703188,15.998 L209.141188,15.998 L207.125755,28.956 L199.107755,28.956 L198.20938,34.732 L212.38338,34.732 Z" id="服务大厅" fill="#3362C4" fill-rule="nonzero"></path>
                <g id="编组-3" transform="translate(0.000000, 3.196156)" fill="#70D4FF">
                    <rect id="矩形" transform="translate(35.778175, 12.727922) rotate(-315.000000) translate(-35.778175, -12.727922) " x="26.7781746" y="3.72792206" width="18" height="18"></rect>
                    <rect id="矩形备份-14" transform="translate(7.778175, 12.727922) rotate(-315.000000) translate(-7.778175, -12.727922) " x="2.27817459" y="7.22792206" width="11" height="11"></rect>
                </g>
                <g id="编组-6" transform="translate(240.506097, 3.196156)" fill="#70D4FF">
                    <rect id="矩形备份-16" transform="translate(12.727922, 12.727922) rotate(-315.000000) translate(-12.727922, -12.727922) " x="3.72792206" y="3.72792206" width="18" height="18"></rect>
                    <rect id="矩形备份-18" transform="translate(39.221825, 12.727922) rotate(-315.000000) translate(-39.221825, -12.727922) " x="33.7218254" y="7.22792206" width="11" height="11"></rect>
                </g>
            </g>
        </g>
    </g>
</svg>