<?xml version="1.0" encoding="UTF-8"?>
<svg width="123px" height="133px" viewBox="0 0 123 133" version="1.1" xmlns="http://www.w3.org/2000/svg" xmlns:xlink="http://www.w3.org/1999/xlink">
    <title>jiaqi</title>
    <g id="one-hr-手机端" stroke="none" stroke-width="1" fill="none" fill-rule="evenodd" opacity="0.0653161337">
        <g id="onehr-手机端" transform="translate(-513.000000, -1636.000000)" fill-rule="nonzero">
            <g id="假期" transform="translate(48.000000, 1645.000000)">
                <g id="jiaqi" transform="translate(465.961262, -9.000000)">
                    <rect id="矩形" fill="#000000" opacity="0" x="0" y="0" width="121.760563" height="133"></rect>
                    <path d="M106.459636,27.6403613 L106.459636,22.0956641 C106.459636,19.0460156 104.175437,16.5509668 101.383505,16.5509668 C98.5915734,16.5509668 96.3073737,19.0460156 96.3073737,22.0956641 L96.3073737,27.6403613 L86.1563002,27.6403613 L86.1563002,22.0956641 C86.1563002,19.0460156 83.8721006,16.5509668 81.0801689,16.5509668 C78.2882372,16.5509668 76.0040376,19.0460156 76.0040376,22.0956641 L76.0040376,27.6403613 L65.8529641,27.6403613 L65.8529641,22.0956641 C65.8529641,19.0460156 63.5687644,16.5509668 60.7768328,16.5509668 C57.9849011,16.5509668 55.7007015,19.0460156 55.7007015,22.0956641 L55.7007015,27.6403613 L45.5496279,27.6403613 L45.5496279,22.0956641 C45.5496279,19.0460156 43.2654283,16.5509668 40.4734966,16.5509668 C37.681565,16.5509668 35.3973653,19.0460156 35.3973653,22.0956641 L35.3973653,27.6403613 L25.2462918,27.6403613 L25.2462918,22.0956641 C25.2462918,19.0460156 22.9620922,16.5509668 20.1701605,16.5509668 C17.3782288,16.5509668 15.0940292,19.0460156 15.0940292,22.0956641 L15.0940292,27.6403613 C12.3020975,27.6403613 10.0178979,30.1354102 10.0178979,33.1850586 L10.0178979,110.804326 C10.0178979,113.853975 12.3020975,116.349023 15.0940292,116.349023 L106.456069,116.349023 C109.248001,116.349023 111.532205,113.853975 111.532205,110.804326 L111.532205,33.1850586 C111.535768,30.1354102 109.251568,27.6403613 106.459636,27.6403613 Z M101.384694,105.259629 L20.1737277,105.259629 L20.1737277,38.7297559 L101.382316,38.7297559 L101.382316,105.259629 L101.384694,105.259629 Z" id="形状" fill="#1677FF"></path>
                    <path d="M64.3678181,49.1333691 L61.4962189,52.2700391 C61.3060092,52.4785079 61.0474727,52.5953958 60.7780218,52.5947461 C60.518805,52.5947461 60.2583991,52.4869434 60.0598248,52.2700391 L57.1882255,49.1333691 C54.2155555,45.8862988 50.3177906,44.2614648 46.4212148,44.2614648 C42.5246389,44.2614648 38.626874,45.885 35.654204,49.1333691 C29.707675,55.6288086 29.707675,66.159707 35.654204,72.6551465 L39.2440003,76.5750098 L57.1894146,96.1769238 C58.1810973,97.2601465 59.4795596,97.800459 60.7780218,97.800459 C62.0764841,97.800459 63.3761354,97.2588477 64.3666291,96.1769238 L82.3120434,76.5750098 L85.9018397,72.6551465 C91.8483687,66.159707 91.8483687,55.6288086 85.9018397,49.1333691 C82.9291696,45.8862988 79.0314047,44.2614648 75.1348289,44.2614648 C71.2382531,44.2614648 67.3404881,45.885 64.3678181,49.1333691 L64.3678181,49.1333691 Z M78.7246252,64.8141211 L75.1348289,68.7352832 L60.7792109,84.4160352 L46.4224039,68.7352832 L42.8337966,64.8154199 C40.8551875,62.6528711 40.8551875,59.1356445 42.8337966,56.9743945 C44.1275026,55.5612695 45.637619,55.3508594 46.4224039,55.3508594 C47.2083778,55.3508594 48.7184942,55.5612695 50.0110111,56.9743945 L52.8861775,60.1149609 C54.9943951,62.4164844 57.7982174,63.6828418 60.7780218,63.6828418 C63.7590153,63.6828418 66.5616486,62.4151855 68.6746224,60.1097656 L71.5450326,56.9730957 C72.8387386,55.5599707 74.3488549,55.3495605 75.1348289,55.3495605 C75.9196138,55.3495605 77.4297301,55.5599707 78.7234361,56.9730957 C80.7032343,59.1356445 80.7032343,62.6528711 78.7246252,64.8141211 L78.7246252,64.8141211 Z" id="形状" fill="#1677FF"></path>
                </g>
            </g>
        </g>
    </g>
</svg>