<?xml version="1.0" encoding="UTF-8"?>
<svg width="56px" height="53px" viewBox="0 0 56 53" version="1.1" xmlns="http://www.w3.org/2000/svg" xmlns:xlink="http://www.w3.org/1999/xlink">
    <title>kaoqingtixing</title>
    <g id="one-hr-手机端" stroke="none" stroke-width="1" fill="none" fill-rule="evenodd">
        <g id="onehr-手机端" transform="translate(-44.000000, -587.000000)" fill-rule="nonzero">
            <g id="kaoqingtixing" transform="translate(44.959300, 587.474708)">
                <path d="M25.6506188,39.9573919 L28.1033989,28.6802038 L14.0451847,28.6802038 L11.5924047,39.9573919 L25.6506188,39.9573919 Z M6.19990205,51.846916 L7.67600948,45.0601919 L9.5640455,45.0601919 L10.4075355,41.1820639 L8.51949944,41.1820639 L9.56276334,36.3854319 L11.4507994,36.3854319 L12.2998386,32.4817898 L10.4118026,32.4817898 L11.2386447,28.6802038 L7.07986268,28.6802038 L6.25302055,32.4817898 L4.21190053,32.4817898 L3.36286129,36.3854319 L5.40398131,36.3854319 L4.36071741,41.1820639 L2.31959739,41.1820639 L1.47610743,45.0601919 L3.51722745,45.0601919 L2.8790607,47.994302 L0.837940685,47.994302 L0,51.846916 L6.19990205,51.846916 Z M23.0178877,32.9410418 L17.2772377,32.9410418 L17.5436029,31.7163698 L23.284253,31.7163698 L23.0178877,32.9410418 Z M22.1632992,36.8701979 L16.4226492,36.8701979 L16.6390709,35.8751519 L22.379721,35.8751519 L22.1632992,36.8701979 Z M23.3963382,51.846916 L24.0678006,48.759722 L18.8884586,48.759722 L19.1048803,47.764676 L24.2842224,47.764676 L24.9390369,44.7540239 L19.7596949,44.7540239 L19.9816659,43.7334639 L25.161008,43.7334639 L25.8102733,40.7483259 L11.1907512,40.7483259 L10.5414859,43.7334639 L15.8483979,43.7334639 L14.7551905,48.759722 L13.5815465,48.759722 L14.436135,44.8305659 L10.302867,44.8305659 L8.77681607,51.846916 L23.3963382,51.846916 Z M36.1766199,51.974486 L39.9723247,34.5229099 L38.4159707,34.5229099 L38.8654621,32.4562758 L40.4218161,32.4562758 L41.2653061,28.5781478 L30.498398,28.5781478 L29.654908,32.4562758 L31.466402,32.4562758 L31.0169107,34.5229099 L29.2819587,34.5229099 L25.4862538,51.974486 L36.1766199,51.974486 Z M51.4952799,39.1409439 L53.7871309,28.6036618 L42.1272328,28.6036618 L39.8353818,39.1409439 L51.4952799,39.1409439 Z M48.7793096,32.5073038 L45.4114616,32.5073038 L45.600137,31.6398278 L48.967985,31.6398278 L48.7793096,32.5073038 Z M35.2267207,34.5229099 L34.2061607,34.5229099 L34.6556521,32.4562758 L35.6762121,32.4562758 L35.2267207,34.5229099 Z M48.002411,36.0792639 L44.6345629,36.0792639 L44.8065905,35.2883299 L48.1744385,35.2883299 L48.002411,36.0792639 Z M35.2911506,43.9630899 L29.8311545,43.9630899 L31.0353474,38.4265519 L31.5966554,38.4265519 L30.1196535,43.2231839 L31.8546056,43.2231839 L33.3316075,38.4265519 L33.9949715,38.4265519 L32.9517076,43.2231839 L35.4520796,43.2231839 L35.2911506,43.9630899 Z M36.0680492,40.3911299 L35.3536572,40.3911299 L35.7809515,38.4265519 L36.4953435,38.4265519 L36.0680492,40.3911299 Z M48.9025567,52 L49.5351742,49.091404 L46.9327462,49.091404 L47.1991114,47.866732 L49.6229415,47.866732 L50.2611082,44.9326219 L47.8372782,44.9326219 L48.1091927,43.6824359 L50.6605927,43.6824359 L51.2932102,40.7738399 L48.7418102,40.7738399 L48.9804291,39.6767379 L45.127815,39.6767379 L44.8891962,40.7738399 L43.7410661,40.7738399 L44.183797,39.6767379 L40.331183,39.6767379 L38.3294856,44.4223419 L42.2586417,44.4223419 L42.5471407,43.6824359 L44.2565787,43.6824359 L43.9846642,44.9326219 L38.5246681,44.9326219 L37.8865014,47.866732 L43.3464974,47.866732 L43.0801322,49.091404 L37.3139681,49.091404 L36.6813506,52 L48.9025567,52 Z M34.3866186,48.121872 L28.9266225,48.121872 L29.1097486,47.27991 L34.5697447,47.27991 L34.3866186,48.121872 Z" id="提醒" fill="#333333"></path>
                <path d="M23.355635,23.3453102 L25.4841632,15.6145681 L12.3444531,15.6145681 L12.6430581,14.6450361 L25.8082822,14.6450361 L26.4755146,11.3537301 L14.0501965,11.3537301 L16.0592827,10.0014881 L27.6681528,10.0014881 L28.3405575,6.68466805 L26.1718675,6.68466805 L28.232764,1.30121401 L24.329122,1.30121401 L22.2937395,6.68466805 L16.2724354,6.68466805 L16.6913952,4.61803404 L22.3299893,4.61803404 L23.002394,1.30121401 L17.3637999,1.30121401 L17.6069001,0.102056001 L13.4736321,0.102056001 L13.2305319,1.30121401 L7.13268586,1.30121401 L6.46028117,4.61803404 L12.5581272,4.61803404 L12.1391674,6.68466805 L5.76066732,6.68466805 L5.08826263,10.0014881 L9.75732466,10.0014881 L6.72559211,12.1191501 L4.65895809,12.1191501 L3.99172574,15.4104561 L8.25256378,15.4104561 L7.18675668,18.9058742 L20.4540368,18.9058742 L20.1447393,20.0540042 L3.91783518,20.0540042 L3.25060284,23.3453102 L23.355635,23.3453102 Z M40.2359062,23.2687682 L40.7427959,20.7683962 L36.3799018,20.7683962 L36.5195551,20.0795182 L40.4997391,20.0795182 L41.0066288,17.5791461 L37.0264448,17.5791461 L37.1712704,16.8647541 L41.3810805,16.8647541 L41.8827978,14.3898961 L37.6729878,14.3898961 L37.8178134,13.6755041 L42.1551934,13.6755041 L43.4534517,7.27149006 L39.1160717,7.27149006 L39.2764143,6.48055605 L42.6697764,6.48055605 L43.3318364,3.21476403 L44.5820224,3.21476403 L45.0837397,0.739906006 L43.8335537,0.739906006 L43.9835517,0 L40.1054237,0 L39.9554257,0.739906006 L37.1743997,0.739906006 L37.3243976,0 L33.4462696,0 L33.2962716,0.739906006 L31.9950576,0.739906006 L31.4933403,3.21476403 L32.7945543,3.21476403 L32.1324943,6.48055605 L35.4238003,6.48055605 L35.2634577,7.27149006 L30.9260776,7.27149006 L29.6278193,13.6755041 L33.9651994,13.6755041 L33.8203737,14.3898961 L29.5850497,14.3898961 L29.0833324,16.8647541 L33.3186564,16.8647541 L33.1738308,17.5791461 L29.1936467,17.5791461 L28.686757,20.0795182 L32.6669411,20.0795182 L32.5272878,20.7683962 L28.1388798,20.7683962 L27.6319901,23.2687682 L40.2359062,23.2687682 Z M44.7773982,23.2687682 L49.3654845,6.17438805 L50.2839886,6.17438805 L47.6047145,19.3906402 L46.1759305,19.3906402 L45.3897342,23.2687682 L50.4415063,23.2687682 L54.6983452,2.27074602 L50.4119931,2.27074602 L51.0254157,5.15143483e-14 L47.5044837,5.15143483e-14 L46.8910611,2.27074602 L45.3091931,2.27074602 L44.5178245,6.17438805 L45.8445525,6.17438805 L41.2309522,23.2687682 L44.7773982,23.2687682 Z M39.298538,3.98018403 L36.517512,3.98018403 L36.6726823,3.21476403 L39.4537083,3.21476403 L39.298538,3.98018403 Z M34.4669167,11.2006461 L33.8035527,11.2006461 L34.093204,9.77186208 L34.756568,9.77186208 L34.4669167,11.2006461 Z M38.9828947,11.2006461 L38.3195307,11.2006461 L38.609182,9.77186208 L39.272546,9.77186208 L38.9828947,11.2006461 Z" id="考勤" fill="#3382E5"></path>
            </g>
        </g>
    </g>
</svg>