<?xml version="1.0" encoding="UTF-8"?>
<svg width="180px" height="141px" viewBox="0 0 180 141" version="1.1" xmlns="http://www.w3.org/2000/svg" xmlns:xlink="http://www.w3.org/1999/xlink">
    <title>编组</title>
    <defs>
        <linearGradient x1="24.3150765%" y1="15.8842279%" x2="69.7573285%" y2="81.486423%" id="linearGradient-1">
            <stop stop-color="#D9EAFA" offset="0%"></stop>
            <stop stop-color="#E8F3FD" offset="41.2572579%"></stop>
            <stop stop-color="#D5E8FA" offset="100%"></stop>
        </linearGradient>
        <rect id="path-2" x="0" y="0" width="164" height="125" rx="16"></rect>
        <filter x="-7.9%" y="-8.8%" width="115.9%" height="120.8%" filterUnits="objectBoundingBox" id="filter-4">
            <feOffset dx="0" dy="2" in="SourceAlpha" result="shadowOffsetOuter1"></feOffset>
            <feGaussianBlur stdDeviation="4" in="shadowOffsetOuter1" result="shadowBlurOuter1"></feGaussianBlur>
            <feColorMatrix values="0 0 0 0 0   0 0 0 0 0   0 0 0 0 0  0 0 0 0.0777152535 0" type="matrix" in="shadowBlurOuter1"></feColorMatrix>
        </filter>
        <linearGradient x1="100%" y1="46.4222773%" x2="21.5130406%" y2="41.0054677%" id="linearGradient-5">
            <stop stop-color="#4E8EFF" offset="0%"></stop>
            <stop stop-color="#70D4FF" stop-opacity="0" offset="100%"></stop>
        </linearGradient>
    </defs>
    <g id="one-hr-手机端" stroke="none" stroke-width="1" fill="none" fill-rule="evenodd">
        <g id="onehr-手机端" transform="translate(-16.000000, -1400.000000)">
            <g id="编组" transform="translate(24.000000, 1406.000000)">
                <g id="信息展示:40/宫格Grid:1/5列/图标形状:圆形备份">
                    <mask id="mask-3" fill="white">
                        <use xlink:href="#path-2"></use>
                    </mask>
                    <g id="蒙版">
                        <use fill="black" fill-opacity="1" filter="url(#filter-4)" xlink:href="#path-2"></use>
                        <use fill="url(#linearGradient-1)" fill-rule="evenodd" xlink:href="#path-2"></use>
                    </g>
                    <g id="logo1" mask="url(#mask-3)" fill="#CFE0F3" opacity="0.400504179">
                        <g transform="translate(-17.000000, 17.000000)">
                            <path d="M51.7938711,78.3630945 C57.1909304,75.2068637 61.1640306,71.2782622 64.4124374,65.9860927 C64.5077918,65.8367041 64.5077918,65.6364599 64.4124374,65.4680004 C64.2694058,65.220079 63.9547362,65.1374385 63.7068148,65.2804701 C63.6400667,65.3186118 63.6019249,65.3535751 63.5447123,65.4076093 C63.350825,65.5856042 63.1537592,65.7667775 62.953515,65.9447724 C62.0540051,66.7393925 61.0909256,67.4799784 60.0738119,68.1633516 C47.0229723,76.8692088 29.1726276,72.5432973 21.0738601,59.1809666 C12.3235041,44.7443096 13.5694684,21.98957 34.1342352,9.13897459 C41.6227345,4.45707328 53.1860454,2.75976486 61.8855456,4.52699984 C61.907795,4.53017832 61.9300444,4.5333568 61.9554722,4.5333568 C62.0571836,4.54607072 62.1684304,4.52699984 62.2637848,4.4697872 C62.5148847,4.32357711 62.6007037,4.00255061 62.4544936,3.75145067 C62.4099949,3.67834563 62.3496037,3.61477603 62.2796772,3.57345578 C62.2065721,3.52577858 62.0985038,3.48763682 62.0190418,3.45585202 C32.2652888,-8.92750678 -0.152030593,13.5952038 0,45.1320842 C0.022785817,49.7408805 0.712516017,54.1271831 2.10469034,58.4944149 C3.93231644,64.247464 6.6817018,69.1868222 11.0235057,73.4396287 C17.6887787,79.9650485 26.7538042,83.3850932 36.0826435,82.9782477 C41.5559864,82.7430402 46.994366,81.166514 51.7938711,78.3630945" id="Fill-29"></path>
                            <path d="M38.2061861,11.6398028 C32.8091268,14.7960336 28.8360265,18.7246351 25.5876198,24.0136262 C25.4922654,24.1630147 25.4922654,24.3664375 25.5876198,24.5348969 C25.7306514,24.7796399 26.0484994,24.8654588 26.2932424,24.7224272 C26.363169,24.6842855 26.4013107,24.6461437 26.4553449,24.5921095 C26.6492322,24.4141147 26.8462979,24.2329413 27.0465422,24.0549464 C27.9460521,23.2635048 28.9091316,22.5229189 29.9294237,21.8395457 C42.9802634,13.1336885 60.8274296,17.4596 68.9261971,30.8187522 C77.6797315,45.2554092 76.4305888,68.0133273 55.8690005,80.8607442 C48.3773227,85.545824 36.8140118,87.2431325 28.1145115,85.472719 C28.0922622,85.472719 28.0700128,85.4695405 28.0477634,85.466362 C27.9428736,85.4568266 27.8348053,85.472719 27.7362724,85.5331101 C27.4851725,85.6761417 27.402532,85.9971682 27.5455636,86.2482682 C27.5900623,86.3245517 27.6504534,86.3849428 27.72038,86.4294415 C27.793485,86.4739402 27.9015534,86.512082 27.9841938,86.5438668 C57.7347684,98.9272256 90.1520878,76.4076935 90.0000572,44.8676346 C89.9772714,40.2620169 89.2875412,35.8757142 87.8953668,31.5084824 C86.0677407,25.7522548 83.3215338,20.8128966 78.9765514,16.5632686 C72.314457,10.0378488 63.246253,6.6178041 53.9174137,7.02147109 C48.4440708,7.2598571 43.0056912,8.83320479 38.2061861,11.6398028" id="Fill-31"></path>
                        </g>
                    </g>
                </g>
                <path d="M118.876803,81 L145.876803,81 C148.638227,81 150.596743,82.1192881 150.251273,83.5 L147.248727,95.5 C146.903257,96.8807119 144.384621,98 141.623197,98 L114.623197,98 C111.861773,98 109.903257,96.8807119 110.248727,95.5 L113.251273,83.5 C113.596743,82.1192881 116.115379,81 118.876803,81 Z" id="矩形" fill="url(#linearGradient-5)" opacity="0.238712754"></path>
            </g>
        </g>
    </g>
</svg>